<svg xmlns="http://www.w3.org/2000/svg" width="64" height="65">
    <g fill="none" fill-rule="evenodd">
        <ellipse cx="32" cy="32.011" fill="#F2F6F7" rx="32" ry="32.011"/>
        <path fill="#FFF" d="M17 11h30v43H17z"/>
        <g fill="#000" stroke="#000" stroke-width=".1">
            <path fill-rule="nonzero" d="M17.736 10h29.18c.385 0 .697.311.697.695v43.089a.696.696 0 0 1-.697.695h-29.18a1.943 1.943 0 0 1-1.95-1.946V11.946c0-1.079.869-1.946 1.95-1.946zm0 1.39a.551.551 0 0 0-.557.556v40.587c0 .311.245.556.557.556H46.22V11.39H17.736z"/>
            <path fill-rule="nonzero" d="M49.736 12.085c1.01 0 1.936.707 2.08 1.63l.008.107v5.213c0 1.047-.95 1.807-2.088 1.807h-2.611a.696.696 0 0 1-.696-.695V12.78c0-.384.311-.695.696-.695h2.61zm.696 1.808c-.061-.203-.362-.418-.696-.418H47.82v5.977h1.915c.428 0 .696-.214.696-.417v-5.142z"/>
            <path fill-rule="nonzero" d="M49.736 20.425c1.032 0 1.945.73 2.082 1.711l.006.096v5.143c0 1.047-.95 1.806-2.088 1.806h-2.611a.696.696 0 0 1-.696-.695V21.12c0-.384.311-.695.696-.695h2.61zm0 1.39H47.82v5.977h1.915c.428 0 .696-.214.696-.417V22.29c-.059-.254-.352-.476-.696-.476z"/>
            <path fill-rule="nonzero" d="M49.736 28.764c1.032 0 1.945.73 2.082 1.712l.006.095v5.143c0 1.048-.95 1.807-2.088 1.807h-2.611a.696.696 0 0 1-.696-.695V29.46c0-.383.311-.695.696-.695h2.61zm0 1.39H47.82v5.977h1.915c.428 0 .696-.213.696-.417v-5.083c-.059-.254-.352-.477-.696-.477zM14.045 15.282a.696.696 0 1 1 0-1.39h5.71a.696.696 0 1 1 0 1.39h-5.71zM14.045 49.892a.696.696 0 1 1 0-1.39h5.71a.696.696 0 1 1 0 1.39h-5.71zM14.045 44.124a.696.696 0 1 1 0-1.39h5.71a.696.696 0 1 1 0 1.39h-5.71zM14.045 38.355a.696.696 0 1 1 0-1.39h5.71a.696.696 0 1 1 0 1.39h-5.71zM14.045 32.587a.696.696 0 1 1 0-1.39h5.71a.696.696 0 1 1 0 1.39h-5.71zM14.045 26.819a.696.696 0 1 1 0-1.39h5.71a.696.696 0 1 1 0 1.39h-5.71zM14.045 21.05a.696.696 0 1 1 0-1.39h5.71a.696.696 0 1 1 0 1.39h-5.71z"/>
            <path d="M29.363 37.33c2.516 0 3.14-1.81 3.14-5.08 0-3.23-.624-5.059-3.14-5.059-2.515 0-3.14 1.83-3.14 5.06 0 3.269.625 5.078 3.14 5.078zm0 1.206c-3.568 0-4.524-2.257-4.524-6.285 0-4.029.956-6.266 4.524-6.266 3.569 0 4.524 2.237 4.524 6.266 0 4.028-.955 6.285-4.524 6.285zm10.695-.195l-1.546-2.571-1.546 2.571h-1.797l2.368-3.572-2.215-3.377h1.769l1.42 2.418 1.421-2.418h1.77l-2.215 3.377 2.367 3.572h-1.796z"/>
        </g>
        <g transform="translate(32 38)">
            <circle cx="10" cy="10" r="10" fill="#FFF"/>
            <path fill="#00E7E2" stroke="#00E7E2" stroke-width=".5" d="M16.4 9.4c.163 0 .303.06.422.178.119.119.178.26.178.422 0 .163-.06.303-.178.422a.577.577 0 0 1-.422.178h-5.8v5.8c0 .163-.06.303-.178.422A.577.577 0 0 1 10 17a.577.577 0 0 1-.422-.178.577.577 0 0 1-.178-.422v-5.8H3.6a.577.577 0 0 1-.422-.178A.577.577 0 0 1 3 10c0-.163.06-.303.178-.422A.577.577 0 0 1 3.6 9.4h5.8V3.6c0-.163.06-.303.178-.422A.577.577 0 0 1 10 3c.163 0 .303.06.422.178.119.119.178.26.178.422v5.8h5.8z"/>
        </g>
    </g>
</svg>
