<svg width="24" height="24" viewBox="0 0 24 24" fill="none" xmlns="http://www.w3.org/2000/svg">
<path d="M0 4C0 1.79086 1.79086 0 4 0H24V24H4C1.79086 24 0 22.2091 0 20V4Z" fill="url(#paint0_linear)"/>
<path d="M7.73943 7.24421L14.1179 5.50316L13.7801 4.8204C13.5591 4.37661 13.0201 4.19334 12.5763 4.41434L6.86621 7.24421H7.73943Z" fill="white" fill-opacity="0.6"/>
<path d="M16.0971 5.55347C16.0181 5.55347 15.939 5.56425 15.8599 5.58581L14.3615 5.99547L9.78516 7.2442H14.9795H17.2434L16.9631 6.21646C16.8553 5.81579 16.4924 5.55347 16.0971 5.55347Z" fill="white" fill-opacity="0.8"/>
<path d="M18.1799 7.87308H17.9751H17.6966H17.4181H15.2925H7.48209H6.45795H5.59551H5.4356H4.90017C4.61628 7.87308 4.36294 8.00424 4.19764 8.21087C4.12218 8.30609 4.06468 8.41569 4.03234 8.53608C4.01258 8.61154 4 8.6906 4 8.77145V8.87925V9.9034V18.7811C4 19.277 4.40247 19.6795 4.89837 19.6795H18.1781C18.674 19.6795 19.0765 19.277 19.0765 18.7811V16.2747H13.7455C12.9029 16.2747 12.2183 15.5901 12.2183 14.7474V13.9245V13.646V13.3675V12.7494C12.2183 12.3362 12.3836 11.9607 12.6513 11.6858C12.8885 11.4414 13.2065 11.2761 13.5623 11.2348C13.6216 11.2276 13.6827 11.224 13.7437 11.224H18.329H18.6075H18.886H19.0765V8.77145C19.0783 8.27555 18.6758 7.87308 18.1799 7.87308Z" fill="white"/>
<path d="M19.7067 12.0828C19.6168 12.0002 19.5108 11.9373 19.3922 11.896C19.3006 11.8654 19.2036 11.8475 19.1012 11.8475H19.0778H19.0598H18.7813H17.777H13.7451C13.2491 11.8475 12.8467 12.2499 12.8467 12.7458V13.1932V13.4717V13.7502V14.7456C12.8467 15.2415 13.2491 15.644 13.7451 15.644H19.0778H19.1012C19.2036 15.644 19.3006 15.626 19.3922 15.5955C19.5108 15.5559 19.6168 15.4913 19.7067 15.4086C19.8863 15.2451 19.9995 15.0079 19.9995 14.7456V12.7458C19.9995 12.4835 19.8863 12.2463 19.7067 12.0828ZM15.6209 13.9245C15.6209 14.1724 15.4196 14.3737 15.1717 14.3737H14.8734C14.6255 14.3737 14.4242 14.1724 14.4242 13.9245V13.6262C14.4242 13.4825 14.4907 13.3549 14.5967 13.2741C14.674 13.2148 14.7692 13.177 14.8734 13.177H14.9489H15.1717C15.4196 13.177 15.6209 13.3783 15.6209 13.6262V13.9245Z" fill="white" fill-opacity="0.9"/>
<defs>
<linearGradient id="paint0_linear" x1="24" y1="24" x2="0" y2="0" gradientUnits="userSpaceOnUse">
<stop stop-color="#86E2FF"/>
<stop offset="1" stop-color="#4EFF60"/>
</linearGradient>
</defs>
</svg>
