<svg width="24" height="24" viewBox="0 0 24 24" fill="none" xmlns="http://www.w3.org/2000/svg">
<path d="M0 4C0 1.79086 1.79086 0 4 0H24V24H4C1.79086 24 0 22.2091 0 20V4Z" fill="url(#paint0_linear)"/>
<g clip-path="url(#clip0)">
<path opacity="0.9" d="M6.33567 14.2524C6.2451 14.4331 6.28038 14.6515 6.42308 14.7943L6.5377 14.9089C6.86888 14.5165 7.25486 14.0906 7.723 13.6226C7.75608 13.5895 7.79014 13.5735 7.82335 13.543L7.08592 12.8054C6.65721 13.5808 6.40721 14.1106 6.33567 14.2524Z" fill="white"/>
<path opacity="0.9" d="M10.3746 16.2742C9.9054 16.7434 9.48059 17.1301 9.09033 17.4615L9.24561 17.6168C9.38965 17.7609 9.61011 17.7955 9.79138 17.7023C10.0342 17.5771 10.416 17.3975 11.2266 16.946L10.4543 16.1738C10.4238 16.2072 10.4078 16.2411 10.3746 16.2742Z" fill="white"/>
<path opacity="0.5" d="M10.1248 13.8731C9.78606 13.5343 8.83343 13.838 8.38592 14.2854C6.88885 15.7825 6.2127 16.8439 5.90911 17.4706C5.82207 17.6502 5.85833 17.8651 5.99944 18.0062C6.1408 18.1477 6.35613 18.1836 6.53582 18.0966C7.14849 17.7991 8.19695 17.1261 9.71184 15.6113C10.2039 15.119 10.4467 14.1951 10.1252 13.8734L10.1248 13.8731Z" fill="white"/>
<path d="M5.46311 10.241L4.1373 11.5668C3.9874 11.7167 3.95664 11.9487 4.06284 12.1326C4.16648 12.3139 4.38352 12.4064 4.59006 12.3511C5.30662 12.1589 5.93711 12.0777 6.36167 12.1866C6.96567 11.1128 7.61472 10.1243 8.3021 9.22631C7.90452 8.97143 6.59067 9.11339 5.46311 10.241Z" fill="white"/>
<path d="M11.9342 19.9497C12.1148 20.041 12.3334 20.0057 12.4763 19.8627L13.8023 18.5369C14.8288 17.5101 15.0094 16.1854 14.7765 15.7654C13.775 16.5201 12.7605 17.1575 11.814 17.691C11.8793 18.0598 11.8358 18.4176 11.6814 19.4625C11.6513 19.6648 11.7558 19.8605 11.9342 19.9497Z" fill="white"/>
<path opacity="0.6" d="M13.3063 8.70215C12.7581 9.25049 12.7581 10.1425 13.3063 10.6908C13.8546 11.2391 14.7467 11.2391 15.2951 10.6908C15.8434 10.1425 15.8434 9.25049 15.2951 8.70215C14.7467 8.15381 13.8546 8.15381 13.3063 8.70215Z" fill="white"/>
<path d="M19.9724 4.45727C19.9556 4.22545 19.771 4.04223 19.5399 4.02489C18.3887 3.93822 17.2419 4.07982 16.1179 4.42357C16.2025 5.19579 16.6019 6.03148 17.2838 6.71337C17.9739 7.40331 18.8323 7.8026 19.6183 7.87731C19.921 6.8164 20.0646 5.68017 19.9724 4.45727Z" fill="white"/>
<path opacity="0.9" d="M16.621 7.37634C15.8409 6.59631 15.3646 5.66077 15.2118 4.74988C12.397 5.9043 9.70239 8.42529 7.57312 11.9668L8.63098 13.0247C9.35376 12.7312 10.2312 12.6537 10.7877 13.2101C11.345 13.7675 11.266 14.6445 10.9727 15.3663L12.0653 16.459C14.7902 14.8168 17.9625 12.2295 19.3115 8.78723C18.3784 8.64624 17.4137 8.16907 16.621 7.37634ZM15.9579 11.3538C15.0442 12.2675 13.5573 12.2675 12.6434 11.3538C11.7296 10.4399 11.7296 8.95288 12.6434 8.03918C13.5573 7.12549 15.0442 7.12549 15.9579 8.03918C16.8717 8.953 16.8717 10.4399 15.9579 11.3538Z" fill="white"/>
</g>
<defs>
<linearGradient id="paint0_linear" x1="30" y1="35.3571" x2="6" y2="-0.642858" gradientUnits="userSpaceOnUse">
<stop stop-color="#86DBFF"/>
<stop offset="1" stop-color="#5C4EFF"/>
</linearGradient>
<clipPath id="clip0">
<rect width="16" height="16" fill="white" transform="translate(4 4)"/>
</clipPath>
</defs>
</svg>
