<?xml version="1.0" encoding="UTF-8"?>
<svg width="60px" height="60px" viewBox="0 0 60 60" version="1.1" xmlns="http://www.w3.org/2000/svg" xmlns:xlink="http://www.w3.org/1999/xlink">
    <!-- Generator: Sketch 49.3 (51167) - http://www.bohemiancoding.com/sketch -->
    <title>New RV Icon</title>
    <desc>Created with Sketch.</desc>
    <defs></defs>
    <g id="Planning-suite---NEW" stroke="none" stroke-width="1" fill="none" fill-rule="evenodd">
        <g id="Range-voting-app---No-data" transform="translate(-736.000000, -352.000000)">
            <g id="Group-31" transform="translate(624.000000, 279.000000)">
                <g id="New-RV-Icon" transform="translate(112.000000, 73.000000)">
                    <circle id="Oval-3" fill="#F2F6F7" cx="30" cy="30" r="30"></circle>
                    <rect id="Rectangle-Copy" x="8" y="5" width="47" height="47"></rect>
                    <g id="noun_471093_cc" transform="translate(14.000000, 14.000000)" fill="#000000" fill-rule="nonzero">
                        <path d="M33.46875,28.9285714 L26.03125,28.9285714 C25.7378487,28.9285714 25.5,28.6869436 25.5,28.3888805 L25.5,19.289691 C25.5,18.9916279 25.7378487,18.75 26.03125,18.75 L33.46875,18.75 C33.7621513,18.75 34,18.9916279 34,19.289691 L34,28.3888805 C34,28.6869436 33.7621513,28.9285714 33.46875,28.9285714 Z M26.5625,27.8491895 L32.9375,27.8491895 L32.9375,19.8293819 L26.5625,19.8293819 L26.5625,27.8491895 Z" id="Shape"></path>
                        <path d="M20.71875,28.9285714 L13.28125,28.9285714 C12.9878487,28.9285714 12.75,28.6877323 12.75,28.3906421 L12.75,11.252215 C12.75,10.9551249 12.9878487,10.7142857 13.28125,10.7142857 L20.71875,10.7142857 C21.0121513,10.7142857 21.25,10.9551249 21.25,11.252215 L21.25,28.3906421 C21.25,28.6877323 21.0121513,28.9285714 20.71875,28.9285714 Z M13.8125,27.8527129 L20.1875,27.8527129 L20.1875,11.7901443 L13.8125,11.7901443 L13.8125,27.8527129 Z" id="Shape"></path>
                        <path d="M7.96875,28.9285714 L0.53125,28.9285714 C0.237848727,28.9285714 0,28.6881005 0,28.3914646 L0,0.537106785 C0,0.240470899 0.237848727,0 0.53125,0 L7.96875,0 C8.26215127,0 8.5,0.240470899 8.5,0.537106785 L8.5,28.3914646 C8.5,28.6881005 8.26215127,28.9285714 7.96875,28.9285714 Z M1.0625,27.8543579 L7.4375,27.8543579 L7.4375,1.07421357 L1.0625,1.07421357 L1.0625,27.8543579 Z" id="Shape"></path>
                    </g>
                    <circle id="Oval-3" fill="#FFFFFF" cx="41" cy="42" r="10"></circle>
                    <path d="M47.4,41.4 C47.5625008,41.4 47.7031244,41.4593744 47.821875,41.578125 C47.9406256,41.6968756 48,41.8374992 48,42 C48,42.1625008 47.9406256,42.3031244 47.821875,42.421875 C47.7031244,42.5406256 47.5625008,42.6 47.4,42.6 L41.6,42.6 L41.6,48.4 C41.6,48.5625008 41.5406256,48.7031244 41.421875,48.821875 C41.3031244,48.9406256 41.1625008,49 41,49 C40.8374992,49 40.6968756,48.9406256 40.578125,48.821875 C40.4593744,48.7031244 40.4,48.5625008 40.4,48.4 L40.4,42.6 L34.6,42.6 C34.4374992,42.6 34.2968756,42.5406256 34.178125,42.421875 C34.0593744,42.3031244 34,42.1625008 34,42 C34,41.8374992 34.0593744,41.6968756 34.178125,41.578125 C34.2968756,41.4593744 34.4374992,41.4 34.6,41.4 L40.4,41.4 L40.4,35.6 C40.4,35.4374992 40.4593744,35.2968756 40.578125,35.178125 C40.6968756,35.0593744 40.8374992,35 41,35 C41.1625008,35 41.3031244,35.0593744 41.421875,35.178125 C41.5406256,35.2968756 41.6,35.4374992 41.6,35.6 L41.6,41.4 L47.4,41.4 Z" id="User-follow---simple-line-icons" stroke="#00E7E2" stroke-width="0.5" fill="#00E7E2"></path>
                </g>
            </g>
        </g>
    </g>
</svg>