<svg xmlns="http://www.w3.org/2000/svg" width="22" height="22">
    <g fill="#8B9396" fill-rule="nonzero" stroke="#8B9396" stroke-width=".3">
        <path d="M18.75 17.5h-3.5a.25.25 0 0 1-.25-.252v-4.246a.25.25 0 0 1 .25-.252h3.5a.25.25 0 0 1 .25.252v4.246a.25.25 0 0 1-.25.252zm-3.25-.504h3v-3.742h-3v3.742zM12.75 17.5h-3.5a.25.25 0 0 1-.25-.251V9.251A.25.25 0 0 1 9.25 9h3.5a.25.25 0 0 1 .25.251v7.998a.25.25 0 0 1-.25.251zm-3.25-.502h3V9.502h-3v7.496zM6.75 17.5h-3.5a.25.25 0 0 1-.25-.25v-13A.25.25 0 0 1 3.25 4h3.5a.25.25 0 0 1 .25.25v13a.25.25 0 0 1-.25.25zm-3.25-.501h3V4.5h-3V17z"/>
    </g>
</svg>
