<?xml version="1.0" encoding="UTF-8"?>
<svg width="16px" height="14px" viewBox="0 0 16 14" version="1.1" xmlns="http://www.w3.org/2000/svg" xmlns:xlink="http://www.w3.org/1999/xlink">
    <!-- Generator: Sketch 49.3 (51167) - http://www.bohemiancoding.com/sketch -->
    <title>noun_471093_cc</title>
    <desc>Created with Sketch.</desc>
    <defs></defs>
    <g id="Symbols" stroke="none" stroke-width="1" fill="none" fill-rule="evenodd">
        <g id="Address-Book-bg" transform="translate(-34.000000, -334.000000)" fill="#8B9396" fill-rule="nonzero">
            <g id="Group-35" transform="translate(0.000000, 90.000000)">
                <g id="Group-10-Copy" transform="translate(31.000000, 240.000000)">
                    <g id="noun_471093_cc" transform="translate(3.000000, 4.000000)">
                        <path d="M15.75,13.5 L12.25,13.5 C12.1119288,13.5 12,13.3872403 12,13.2481442 L12,9.00185578 C12,8.86275967 12.1119288,8.75 12.25,8.75 L15.75,8.75 C15.8880712,8.75 16,8.86275967 16,9.00185578 L16,13.2481442 C16,13.3872403 15.8880712,13.5 15.75,13.5 Z M12.5,12.9962884 L15.5,12.9962884 L15.5,9.25371156 L12.5,9.25371156 L12.5,12.9962884 Z" id="Shape"></path>
                        <path d="M9.75,13.5 L6.25,13.5 C6.11192881,13.5 6,13.3876084 6,13.2489663 L6,5.25103367 C6,5.1123916 6.11192881,5 6.25,5 L9.75,5 C9.88807119,5 10,5.1123916 10,5.25103367 L10,13.2489663 C10,13.3876084 9.88807119,13.5 9.75,13.5 Z M6.5,12.9979327 L9.5,12.9979327 L9.5,5.50206734 L6.5,5.50206734 L6.5,12.9979327 Z" id="Shape"></path>
                        <path d="M3.75,13.5 L0.25,13.5 C0.111928813,13.5 0,13.3877802 0,13.2493502 L0,0.250649833 C0,0.112219753 0.111928813,0 0.25,0 L3.75,0 C3.88807119,0 4,0.112219753 4,0.250649833 L4,13.2493502 C4,13.3877802 3.88807119,13.5 3.75,13.5 Z M0.5,12.9987003 L3.5,12.9987003 L3.5,0.501299666 L0.5,0.501299666 L0.5,12.9987003 Z" id="Shape"></path>
                    </g>
                </g>
            </g>
        </g>
    </g>
</svg>