<?xml version="1.0" encoding="UTF-8"?>
<svg width="64px" height="65px" viewBox="0 0 64 65" version="1.1" xmlns="http://www.w3.org/2000/svg" xmlns:xlink="http://www.w3.org/1999/xlink">
    <!-- Generator: Sketch 49.3 (51167) - http://www.bohemiancoding.com/sketch -->
    <title>Group 5</title>
    <desc>Created with Sketch.</desc>
    <defs></defs>
    <g id="Range-Vote-onboarding" stroke="none" stroke-width="1" fill="none" fill-rule="evenodd">
        <g id="range-vote-1" transform="translate(-642.000000, -423.000000)">
            <g id="Group-5" transform="translate(642.000000, 423.000000)">
                <ellipse id="Oval-3" fill="#F2F6F7" cx="32" cy="32.0109922" rx="32" ry="32.0109922"></ellipse>
                <g id="noun_1547138_cc" transform="translate(14.000000, 15.000000)" fill="#000000" fill-rule="nonzero">
                    <g id="Group">
                        <g id="Shape">
                            <path d="M19.8807026,28.75 L25.4338943,33.4726498 L24.641123,34.4302054 L19.1166667,29.7319933 L19.1166667,33.75 L17.8833333,33.75 L17.8833333,29.7350357 L12.509438,34.3052049 L11.7166667,33.3476493 L17.1228749,28.75 L0,28.75 L0,0 L37,0 L37,28.75 L19.8807026,28.75 Z M1.23333333,1.25 L1.23333333,27.5 L35.7666667,27.5 L35.7666667,1.25 L1.23333333,1.25 Z M14.8,25 L33.3,25 L33.3,25.625 L14.8,25.625 L14.8,25 Z M23.4333333,20.625 L24.6666667,20.625 L24.6666667,24.375 L23.4333333,24.375 L23.4333333,20.625 Z M29.6,13.75 L30.8333333,13.75 L30.8333333,24.375 L29.6,24.375 L29.6,13.75 Z M26.5166667,17.5 L27.75,17.5 L27.75,24.375 L26.5166667,24.375 L26.5166667,17.5 Z M17.2666667,19.375 L18.5,19.375 L18.5,24.375 L17.2666667,24.375 L17.2666667,19.375 Z M20.35,17.5 L21.5833333,17.5 L21.5833333,24.375 L20.35,24.375 L20.35,17.5 Z"></path>
                            <path d="M8.94166667,5 L12.95,12.0161291 L8.94166667,15.1612903 L4.93333333,12.0161291 L8.94166667,5 Z M8.94166667,20 L4.93333333,12.7419355 L8.94166667,15.8870967 L12.95,12.7419355 L8.94166667,20 Z"></path>
                        </g>
                    </g>
                </g>
            </g>
        </g>
    </g>
</svg>