<?xml version="1.0" encoding="UTF-8"?>
<svg width="60px" height="60px" viewBox="0 0 60 60" version="1.1" xmlns="http://www.w3.org/2000/svg" xmlns:xlink="http://www.w3.org/1999/xlink">
    <!-- Generator: Sketch 51.3 (57544) - http://www.bohemiancoding.com/sketch -->
    <title>Group 7</title>
    <desc>Created with Sketch.</desc>
    <defs></defs>
    <g id="Planning-app---NEW" stroke="none" stroke-width="1" fill="none" fill-rule="evenodd">
        <g id="Group-44-Copy" transform="translate(-112.000000, -54.000000)">
            <g id="Group-7" transform="translate(112.000000, 54.000000)">
                <g id="icon" fill="#F2F6F7">
                    <circle id="Oval-3" cx="30" cy="30" r="30"></circle>
                </g>
                <g id="Rewards-icon" transform="translate(8.000000, 13.000000)" fill="#000000" fill-rule="nonzero" stroke="#000000" stroke-width="0.5">
                    <path d="M43.3300781,14.3041992 L43.3300781,13.4692383 L37.4853516,13.4692383 L34.1455078,13.4692383 C33.9150586,13.4692383 33.7280273,13.6558521 33.7280273,13.8867188 L33.7280273,14.3041992 L24.9609375,14.3041992 C24.8503052,14.3041992 24.7438477,14.3480347 24.6657788,14.426521 L19.8092285,19.2830713 L3.03736816,16.3661353 C2.36271973,16.2496582 1.67679932,16.4341846 1.15327881,16.8746265 C0.629758301,17.3146509 0.329589844,17.9596582 0.329589844,18.6439087 C0.329589844,19.4625879 0.769196777,20.2278296 1.47640869,20.6407178 L19.6906641,31.2655957 C20.0509497,31.4755884 20.4521484,31.5812109 20.8550171,31.5812109 C21.2082056,31.5812109 21.562229,31.4998022 21.8895337,31.3361499 L30.9041895,26.8286133 L33.7280273,26.8286133 L33.7280273,27.2460938 C33.7280273,27.4769604 33.9150586,27.6635742 34.1455078,27.6635742 L37.4853516,27.6635742 L43.3300781,27.6635742 L43.3300781,26.8286133 L37.902832,26.8286133 L37.902832,14.3041992 L43.3300781,14.3041992 Z M30.8056641,25.9936523 C30.7409546,25.9936523 30.6766626,26.0086816 30.6190503,26.0374878 L21.5158887,30.5892773 C21.0687671,30.8130469 20.5431592,30.7967651 20.1114844,30.5441895 L1.897229,19.9193115 C1.44509766,19.6554639 1.16455078,19.1665942 1.16455078,18.6439087 C1.16455078,18.2068066 1.35617432,17.7947534 1.69057617,17.5133716 C2.02497803,17.2319897 2.46291504,17.1138428 2.89417236,17.1889893 L19.0869873,20.0053125 L17.842478,21.2498218 C17.3177051,21.7750122 17.0288086,22.4722046 17.0288086,23.2144849 C17.0288086,24.7470557 18.2754053,25.9936523 19.8079761,25.9936523 C20.5506738,25.9936523 21.2487012,25.7047559 21.7730566,25.1795654 L26.0910571,20.8615649 L25.5007397,20.2712476 L21.1823218,24.589248 C20.8153564,24.9566309 20.3273218,25.1586914 19.8079761,25.1586914 C18.7358862,25.1586914 17.8637695,24.2865747 17.8637695,23.2144849 C17.8637695,22.6955566 18.0658301,22.2071045 18.4332129,21.8397217 L25.1337744,15.1391602 L33.7280273,15.1391602 L33.7280273,25.9936523 L30.8056641,25.9936523 Z M34.5629883,14.3041992 L37.0678711,14.3041992 L37.0678711,26.8286133 L34.5629883,26.8286133 L34.5629883,14.3041992 Z" id="Shape"></path>
                    <path d="M15.46875,14.0625 C19.3459293,14.0625 22.5,10.9084293 22.5,7.03125 C22.5,3.15407072 19.3459293,0 15.46875,0 C11.5915707,0 8.4375,3.15407072 8.4375,7.03125 C8.4375,10.9084293 11.5915707,14.0625 15.46875,14.0625 Z M15.46875,0.740131579 C18.9377467,0.740131579 21.7598684,3.56225329 21.7598684,7.03125 C21.7598684,10.5002467 18.9377467,13.3223684 15.46875,13.3223684 C11.9997533,13.3223684 9.17763158,10.5002467 9.17763158,7.03125 C9.17763158,3.56225329 11.9997533,0.740131579 15.46875,0.740131579 Z" id="Shape"></path>
                </g>
                <g id="Plus-icon" transform="translate(31.000000, 32.000000)">
                    <circle id="Oval-3" fill="#FFFFFF" cx="10" cy="10" r="10"></circle>
                    <path d="M16.4,9.4 C16.5625008,9.4 16.7031244,9.45937441 16.821875,9.578125 C16.9406256,9.69687559 17,9.83749919 17,10 C17,10.1625008 16.9406256,10.3031244 16.821875,10.421875 C16.7031244,10.5406256 16.5625008,10.6 16.4,10.6 L10.6,10.6 L10.6,16.4 C10.6,16.5625008 10.5406256,16.7031244 10.421875,16.821875 C10.3031244,16.9406256 10.1625008,17 10,17 C9.83749919,17 9.69687559,16.9406256 9.578125,16.821875 C9.45937441,16.7031244 9.4,16.5625008 9.4,16.4 L9.4,10.6 L3.6,10.6 C3.43749919,10.6 3.29687559,10.5406256 3.178125,10.421875 C3.05937441,10.3031244 3,10.1625008 3,10 C3,9.83749919 3.05937441,9.69687559 3.178125,9.578125 C3.29687559,9.45937441 3.43749919,9.4 3.6,9.4 L9.4,9.4 L9.4,3.6 C9.4,3.43749919 9.45937441,3.29687559 9.578125,3.178125 C9.69687559,3.05937441 9.83749919,3 10,3 C10.1625008,3 10.3031244,3.05937441 10.421875,3.178125 C10.5406256,3.29687559 10.6,3.43749919 10.6,3.6 L10.6,9.4 L16.4,9.4 Z" id="User-follow---simple-line-icons" stroke="#00E7E2" stroke-width="0.5" fill="#00E7E2"></path>
                </g>
            </g>
        </g>
    </g>
</svg>