<svg xmlns="http://www.w3.org/2000/svg" width="56" height="56">
    <g fill="#8B9396" fill-rule="evenodd" stroke="#8B9396" stroke-width=".1">
        <path fill-rule="nonzero" d="M4.943 2h11.971c.158 0 .286.128.286.286V20a.286.286 0 0 1-.286.286H4.943a.798.798 0 0 1-.8-.8V2.8c0-.444.356-.8.8-.8zm0 .571c-.128 0-.229.101-.229.229v16.686c0 .128.1.228.229.228h11.686V2.571H4.943z"/>
        <path fill-rule="nonzero" d="M18.071 2.857c.415 0 .794.29.854.67l.003.044v2.143c0 .431-.39.743-.857.743H17a.286.286 0 0 1-.286-.286V3.143c0-.158.128-.286.286-.286h1.071zm.286.744c-.025-.084-.149-.172-.286-.172h-.785v2.457h.785c.176 0 .286-.088.286-.172V3.601z"/>
        <path fill-rule="nonzero" d="M18.071 6.286c.423 0 .798.3.854.703l.003.04v2.114c0 .43-.39.743-.857.743H17a.286.286 0 0 1-.286-.286V6.571c0-.157.128-.285.286-.285h1.071zm0 .571h-.785v2.457h.785c.176 0 .286-.088.286-.171v-2.09c-.024-.105-.145-.196-.286-.196z"/>
        <path fill-rule="nonzero" d="M18.071 9.714c.423 0 .798.3.854.704l.003.04v2.113c0 .431-.39.743-.857.743H17a.286.286 0 0 1-.286-.285V10c0-.158.128-.286.286-.286h1.071zm0 .572h-.785v2.457h.785c.176 0 .286-.088.286-.172v-2.09c-.024-.104-.145-.195-.286-.195zM3.429 4.171a.286.286 0 1 1 0-.571H5.77a.286.286 0 0 1 0 .571H3.43zM3.429 18.4a.286.286 0 1 1 0-.571H5.77a.286.286 0 0 1 0 .571H3.43zM3.429 16.029a.286.286 0 1 1 0-.572H5.77a.286.286 0 1 1 0 .572H3.43zM3.429 13.657a.286.286 0 0 1 0-.571H5.77a.286.286 0 1 1 0 .571H3.43zM3.429 11.286a.286.286 0 0 1 0-.572H5.77a.286.286 0 0 1 0 .572H3.43zM3.429 8.914a.286.286 0 1 1 0-.571H5.77a.286.286 0 0 1 0 .571H3.43zM3.429 6.543a.286.286 0 1 1 0-.572H5.77a.286.286 0 0 1 0 .572H3.43z"/>
        <path d="M9.713 13.235c1.032 0 1.288-.744 1.288-2.088 0-1.328-.256-2.08-1.288-2.08s-1.288.752-1.288 2.08c0 1.344.256 2.088 1.288 2.088zm0 .496c-1.464 0-1.856-.928-1.856-2.584 0-1.656.392-2.576 1.856-2.576s1.856.92 1.856 2.576c0 1.656-.392 2.584-1.856 2.584zm4.388-.08l-.635-1.057-.634 1.057h-.737l.971-1.468-.908-1.389h.725l.583.995.583-.995h.726l-.909 1.389.972 1.468H14.1z"/>
    </g>
</svg>
