<?xml version="1.0" encoding="UTF-8"?>
<svg xmlns="http://www.w3.org/2000/svg" xmlns:xlink="http://www.w3.org/1999/xlink" width="64px" height="65px" version="1.1" viewBox="0 0 64 65">
<!--Generator: sketchtool 51.2 (57519) - http://www.bohemiancoding.com/sketch-->
    <title>
        DD1B0BC6-A474-48E4-BDF8-C262063A672E
    </title>
    <desc>
        Created with sketchtool.
    </desc>
    <defs/>
    <g id="Planning-suite---NEW" fill="none" fill-rule="evenodd" stroke="none" stroke-width="1">
        <g id="Address-Book---No-data" transform="translate(-757.000000, -335.000000)">
            <g id="Group-4" transform="translate(757.000000, 335.000000)">
                <ellipse id="Oval-3" cx="32" cy="32.0109922" fill="#F2F6F7" rx="32" ry="32.0109922"/>
                <g id="Group-11" transform="translate(9.000000, 19.000000)"/>
                <g id="Group-3" transform="translate(13.000000, 10.000000)">
                    <rect id="Rectangle" width="30" height="43" x="4" y="1" fill="#FFFFFF"/>
                    <g id="Group-12" fill="#000000" stroke="#000000" stroke-width="0.1">
                        <path id="Shape" fill-rule="nonzero" d="M4.73571429,0 L33.9160714,0 C34.3006983,0 34.6125,0.311153456 34.6125,0.694980695 L34.6125,43.7837838 C34.6125,44.167611 34.3006983,44.4787645 33.9160714,44.4787645 L4.73571429,44.4787645 C3.65465883,44.4787645 2.78571429,43.6116265 2.78571429,42.5328185 L2.78571429,1.94594595 C2.78571429,0.867138012 3.65465883,0 4.73571429,0 Z M4.73571429,1.38996139 C4.42391259,1.38996139 4.17857143,1.63479249 4.17857143,1.94594595 L4.17857143,42.5328185 C4.17857143,42.843972 4.42391259,43.0888031 4.73571429,43.0888031 L33.2196429,43.0888031 L33.2196429,1.38996139 L4.73571429,1.38996139 Z"/>
                        <path id="Shape" fill-rule="nonzero" d="M36.7356359,2.08494208 C37.7461211,2.08494208 38.671556,2.79189163 38.816061,3.71514382 L38.8244036,3.82239382 L38.8244036,9.03474903 C38.8244036,10.0823633 37.8736105,10.8416988 36.7356359,10.8416988 L34.125,10.8416988 C33.7403731,10.8416988 33.4285714,10.5305454 33.4285714,10.1467181 L33.4285714,2.77992278 C33.4285714,2.39609554 33.7403731,2.08494208 34.125,2.08494208 L36.7356359,2.08494208 Z M37.4315465,3.89325911 C37.3705822,3.69026309 37.0697395,3.47490347 36.7356359,3.47490347 L34.8214286,3.47490347 L34.8214286,9.45173745 L36.7356359,9.45173745 C37.1640429,9.45173745 37.4315465,9.23810004 37.4315465,9.03474903 L37.4315465,3.89325911 Z"/>
                        <path id="Shape" fill-rule="nonzero" d="M36.7356359,10.4247104 C37.767747,10.4247104 38.6811819,11.1542104 38.817787,12.1360878 L38.8244036,12.2316602 L38.8244036,17.3745174 C38.8244036,18.4221316 37.8736105,19.1814672 36.7356359,19.1814672 L34.125,19.1814672 C33.7403731,19.1814672 33.4285714,18.8703137 33.4285714,18.4864865 L33.4285714,11.1196911 C33.4285714,10.7358639 33.7403731,10.4247104 34.125,10.4247104 L36.7356359,10.4247104 Z M36.7356359,11.8146718 L34.8214286,11.8146718 L34.8214286,17.7915058 L36.7356359,17.7915058 C37.1640429,17.7915058 37.4315465,17.5778684 37.4315465,17.3745174 L37.4315465,12.2912678 C37.3733196,12.0368338 37.0797377,11.8146718 36.7356359,11.8146718 Z"/>
                        <path id="Shape" fill-rule="nonzero" d="M36.7356359,18.7644788 C37.767747,18.7644788 38.6811819,19.4939787 38.817787,20.4758561 L38.8244036,20.5714286 L38.8244036,25.7142857 C38.8244036,26.7619 37.8736105,27.5212355 36.7356359,27.5212355 L34.125,27.5212355 C33.7403731,27.5212355 33.4285714,27.2100821 33.4285714,26.8262548 L33.4285714,19.4594595 C33.4285714,19.0756322 33.7403731,18.7644788 34.125,18.7644788 L36.7356359,18.7644788 Z M36.7356359,20.1544402 L34.8214286,20.1544402 L34.8214286,26.1312741 L36.7356359,26.1312741 C37.1640429,26.1312741 37.4315465,25.9176367 37.4315465,25.7142857 L37.4315465,20.6310361 C37.3733196,20.3766022 37.0797377,20.1544402 36.7356359,20.1544402 Z"/>
                        <path id="Shape" fill-rule="nonzero" d="M1.04464286,5.28185328 C0.660015978,5.28185328 0.348214286,4.97069983 0.348214286,4.58687259 C0.348214286,4.20304535 0.660015978,3.89189189 1.04464286,3.89189189 L6.75535714,3.89189189 C7.13998402,3.89189189 7.45178571,4.20304535 7.45178571,4.58687259 C7.45178571,4.97069983 7.13998402,5.28185328 6.75535714,5.28185328 L1.04464286,5.28185328 Z"/>
                        <path id="Shape" fill-rule="nonzero" d="M1.04464286,39.8918919 C0.660015978,39.8918919 0.348214286,39.5807384 0.348214286,39.1969112 C0.348214286,38.813084 0.660015978,38.5019305 1.04464286,38.5019305 L6.75535714,38.5019305 C7.13998402,38.5019305 7.45178571,38.813084 7.45178571,39.1969112 C7.45178571,39.5807384 7.13998402,39.8918919 6.75535714,39.8918919 L1.04464286,39.8918919 Z"/>
                        <path id="Shape" fill-rule="nonzero" d="M1.04464286,34.1235521 C0.660015978,34.1235521 0.348214286,33.8123987 0.348214286,33.4285714 C0.348214286,33.0447442 0.660015978,32.7335907 1.04464286,32.7335907 L6.75535714,32.7335907 C7.13998402,32.7335907 7.45178571,33.0447442 7.45178571,33.4285714 C7.45178571,33.8123987 7.13998402,34.1235521 6.75535714,34.1235521 L1.04464286,34.1235521 Z"/>
                        <path id="Shape" fill-rule="nonzero" d="M1.04464286,28.3552124 C0.660015978,28.3552124 0.348214286,28.0440589 0.348214286,27.6602317 C0.348214286,27.2764044 0.660015978,26.965251 1.04464286,26.965251 L6.75535714,26.965251 C7.13998402,26.965251 7.45178571,27.2764044 7.45178571,27.6602317 C7.45178571,28.0440589 7.13998402,28.3552124 6.75535714,28.3552124 L1.04464286,28.3552124 Z"/>
                        <path id="Shape" fill-rule="nonzero" d="M1.04464286,22.5868726 C0.660015978,22.5868726 0.348214286,22.2757191 0.348214286,21.8918919 C0.348214286,21.5080647 0.660015978,21.1969112 1.04464286,21.1969112 L6.75535714,21.1969112 C7.13998402,21.1969112 7.45178571,21.5080647 7.45178571,21.8918919 C7.45178571,22.2757191 7.13998402,22.5868726 6.75535714,22.5868726 L1.04464286,22.5868726 Z"/>
                        <path id="Shape" fill-rule="nonzero" d="M1.04464286,16.8185328 C0.660015978,16.8185328 0.348214286,16.5073794 0.348214286,16.1235521 C0.348214286,15.7397249 0.660015978,15.4285714 1.04464286,15.4285714 L6.75535714,15.4285714 C7.13998402,15.4285714 7.45178571,15.7397249 7.45178571,16.1235521 C7.45178571,16.5073794 7.13998402,16.8185328 6.75535714,16.8185328 L1.04464286,16.8185328 Z"/>
                        <path id="Shape" fill-rule="nonzero" d="M1.04464286,11.0501931 C0.660015978,11.0501931 0.348214286,10.7390396 0.348214286,10.3552124 C0.348214286,9.97138512 0.660015978,9.66023166 1.04464286,9.66023166 L6.75535714,9.66023166 C7.13998402,9.66023166 7.45178571,9.97138512 7.45178571,10.3552124 C7.45178571,10.7390396 7.13998402,11.0501931 6.75535714,11.0501931 L1.04464286,11.0501931 Z"/>
                        <path id="0x" d="M16.3632857,27.3294208 C18.8787857,27.3294208 19.5027857,25.5196911 19.5027857,22.2505019 C19.5027857,19.0202317 18.8787857,17.1910425 16.3632857,17.1910425 C13.8477857,17.1910425 13.2237857,19.0202317 13.2237857,22.2505019 C13.2237857,25.5196911 13.8477857,27.3294208 16.3632857,27.3294208 Z M16.3632857,28.5359073 C12.7947857,28.5359073 11.8392857,26.27861 11.8392857,22.2505019 C11.8392857,18.2223938 12.7947857,15.984556 16.3632857,15.984556 C19.9317857,15.984556 20.8872857,18.2223938 20.8872857,22.2505019 C20.8872857,26.27861 19.9317857,28.5359073 16.3632857,28.5359073 Z M27.0576429,28.3413127 L25.5115714,25.7698842 L23.9655,28.3413127 L22.1687143,28.3413127 L24.5365714,24.769112 L22.3219286,21.3915058 L24.0908571,21.3915058 L25.5115714,23.8100386 L26.9322857,21.3915058 L28.7012143,21.3915058 L26.4865714,24.769112 L28.8544286,28.3413127 L27.0576429,28.3413127 Z"/>
                    </g>
                </g>
                <g id="Group-4-Copy" transform="translate(32.000000, 38.000000)">
                    <circle id="Oval-3" cx="10" cy="10" r="10" fill="#FFFFFF"/>
                    <path id="User-follow---simple-line-icons" fill="#00E7E2" stroke="#00E7E2" stroke-width="0.5" d="M16.4,9.4 C16.5625008,9.4 16.7031244,9.45937441 16.821875,9.578125 C16.9406256,9.69687559 17,9.83749919 17,10 C17,10.1625008 16.9406256,10.3031244 16.821875,10.421875 C16.7031244,10.5406256 16.5625008,10.6 16.4,10.6 L10.6,10.6 L10.6,16.4 C10.6,16.5625008 10.5406256,16.7031244 10.421875,16.821875 C10.3031244,16.9406256 10.1625008,17 10,17 C9.83749919,17 9.69687559,16.9406256 9.578125,16.821875 C9.45937441,16.7031244 9.4,16.5625008 9.4,16.4 L9.4,10.6 L3.6,10.6 C3.43749919,10.6 3.29687559,10.5406256 3.178125,10.421875 C3.05937441,10.3031244 3,10.1625008 3,10 C3,9.83749919 3.05937441,9.69687559 3.178125,9.578125 C3.29687559,9.45937441 3.43749919,9.4 3.6,9.4 L9.4,9.4 L9.4,3.6 C9.4,3.43749919 9.45937441,3.29687559 9.578125,3.178125 C9.69687559,3.05937441 9.83749919,3 10,3 C10.1625008,3 10.3031244,3.05937441 10.421875,3.178125 C10.5406256,3.29687559 10.6,3.43749919 10.6,3.6 L10.6,9.4 L16.4,9.4 Z"/>
                </g>
            </g>
        </g>
    </g>
</svg>
