<?xml version="1.0" encoding="UTF-8"?>
<svg width="64px" height="65px" viewBox="0 0 64 65" version="1.1" xmlns="http://www.w3.org/2000/svg" xmlns:xlink="http://www.w3.org/1999/xlink">
    <!-- Generator: Sketch 49.3 (51167) - http://www.bohemiancoding.com/sketch -->
    <title>Group 6</title>
    <desc>Created with Sketch.</desc>
    <defs></defs>
    <g id="Range-Vote-onboarding" stroke="none" stroke-width="1" fill="none" fill-rule="evenodd">
        <g id="range-vote-1" transform="translate(-836.000000, -423.000000)">
            <g id="Group-6" transform="translate(836.000000, 423.000000)">
                <ellipse id="Oval-3" fill="#F2F6F7" cx="32" cy="32.0109922" rx="32" ry="32.0109922"></ellipse>
                <g id="noun_1387976_cc" transform="translate(12.000000, 13.000000)" fill="#000000">
                    <path d="M27.1818182,38 C25.223718,38 23.6363636,36.4050141 23.6363636,34.4375 C23.6363636,32.4699859 25.223718,30.875 27.1818182,30.875 C29.1399184,30.875 30.7272727,32.4699859 30.7272727,34.4375 C30.7272727,36.4050141 29.1399184,38 27.1818182,38 Z M27.1818182,36.8125 C28.4872185,36.8125 29.5454545,35.7491763 29.5454545,34.4375 C29.5454545,33.1258237 28.4872185,32.0625 27.1818182,32.0625 C25.8764179,32.0625 24.8181818,33.1258237 24.8181818,34.4375 C24.8181818,35.7491763 25.8764179,36.8125 27.1818182,36.8125 Z M11.8181818,38 C9.86008164,38 8.27272727,36.4050141 8.27272727,34.4375 C8.27272727,32.4699859 9.86008164,30.875 11.8181818,30.875 C13.776282,30.875 15.3636364,32.4699859 15.3636364,34.4375 C15.3636364,36.4050141 13.776282,38 11.8181818,38 Z M11.8181818,36.8125 C13.1235821,36.8125 14.1818182,35.7491763 14.1818182,34.4375 C14.1818182,33.1258237 13.1235821,32.0625 11.8181818,32.0625 C10.5127815,32.0625 9.45454545,33.1258237 9.45454545,34.4375 C9.45454545,35.7491763 10.5127815,36.8125 11.8181818,36.8125 Z M27.1818182,7.125 C25.223718,7.125 23.6363636,5.53001412 23.6363636,3.5625 C23.6363636,1.59498588 25.223718,0 27.1818182,0 C29.1399184,0 30.7272727,1.59498588 30.7272727,3.5625 C30.7272727,5.53001412 29.1399184,7.125 27.1818182,7.125 Z M27.1818182,5.9375 C28.4872185,5.9375 29.5454545,4.87417628 29.5454545,3.5625 C29.5454545,2.25082372 28.4872185,1.1875 27.1818182,1.1875 C25.8764179,1.1875 24.8181818,2.25082372 24.8181818,3.5625 C24.8181818,4.87417628 25.8764179,5.9375 27.1818182,5.9375 Z M19.5,24.9375 C16.2364995,24.9375 13.5909091,22.2791904 13.5909091,19 C13.5909091,15.7208096 16.2364995,13.0625 19.5,13.0625 C22.7635005,13.0625 25.4090909,15.7208096 25.4090909,19 C25.4090909,22.2791904 22.7635005,24.9375 19.5,24.9375 Z M19.5,23.75 C22.1108006,23.75 24.2272727,21.6233526 24.2272727,19 C24.2272727,16.3766474 22.1108006,14.25 19.5,14.25 C16.8891994,14.25 14.7727273,16.3766474 14.7727273,19 C14.7727273,21.6233526 16.8891994,23.75 19.5,23.75 Z M35.4545455,22.5625 C33.4964453,22.5625 31.9090909,20.9675141 31.9090909,19 C31.9090909,17.0324859 33.4964453,15.4375 35.4545455,15.4375 C37.4126456,15.4375 39,17.0324859 39,19 C39,20.9675141 37.4126456,22.5625 35.4545455,22.5625 Z M35.4545455,21.375 C36.7599458,21.375 37.8181818,20.3116763 37.8181818,19 C37.8181818,17.6883237 36.7599458,16.625 35.4545455,16.625 C34.1491451,16.625 33.0909091,17.6883237 33.0909091,19 C33.0909091,20.3116763 34.1491451,21.375 35.4545455,21.375 Z M3.54545455,22.5625 C1.58735436,22.5625 0,20.9675141 0,19 C0,17.0324859 1.58735436,15.4375 3.54545455,15.4375 C5.50355473,15.4375 7.09090909,17.0324859 7.09090909,19 C7.09090909,20.9675141 5.50355473,22.5625 3.54545455,22.5625 Z M3.54545455,21.375 C4.85085486,21.375 5.90909091,20.3116763 5.90909091,19 C5.90909091,17.6883237 4.85085486,16.625 3.54545455,16.625 C2.24005423,16.625 1.18181818,17.6883237 1.18181818,19 C1.18181818,20.3116763 2.24005423,21.375 3.54545455,21.375 Z M11.8181818,7.125 C9.86008164,7.125 8.27272727,5.53001412 8.27272727,3.5625 C8.27272727,1.59498588 9.86008164,0 11.8181818,0 C13.776282,0 15.3636364,1.59498588 15.3636364,3.5625 C15.3636364,5.53001412 13.776282,7.125 11.8181818,7.125 Z M11.8181818,5.9375 C13.1235821,5.9375 14.1818182,4.87417628 14.1818182,3.5625 C14.1818182,2.25082372 13.1235821,1.1875 11.8181818,1.1875 C10.5127815,1.1875 9.45454545,2.25082372 9.45454545,3.5625 C9.45454545,4.87417628 10.5127815,5.9375 11.8181818,5.9375 Z" id="Shape"></path>
                </g>
            </g>
        </g>
    </g>
</svg>