<svg xmlns="http://www.w3.org/2000/svg" width="60" height="58">
    <path fill-rule="evenodd" d="M29.782 0C13.302 0 0 13.301 0 29.779c0 13.102 8.537 24.22 20.45 28.19 1.589.199 1.986-.595 1.986-1.39v-5.161c-8.34 1.787-10.126-3.97-10.126-3.97-1.39-3.376-3.375-4.368-3.375-4.368-2.78-1.787.198-1.787.198-1.787 2.978.199 4.567 2.978 4.567 2.978 2.58 4.566 6.949 3.176 8.736 2.382.198-1.985.992-3.176 1.985-3.97-6.552-.794-13.501-3.375-13.501-14.691 0-3.176 1.191-5.956 2.978-7.941-.397-.794-1.39-3.772.199-7.941 0 0 2.58-.794 8.14 2.978 2.383-.596 4.964-.993 7.545-.993 2.58 0 5.162.397 7.544.993 5.758-3.772 8.14-2.978 8.14-2.978 1.59 4.169.596 7.147.2 7.941 1.985 1.985 2.978 4.765 2.978 7.941 0 11.514-6.95 13.897-13.502 14.69.993.993 1.986 2.78 1.986 5.56v8.139c0 .794.596 1.787 1.985 1.39 11.913-3.97 20.252-15.088 20.252-28.19C59.564 13.3 46.261 0 29.782 0z"/>
</svg>
