<?xml version="1.0" encoding="UTF-8"?>
<svg width="60px" height="60px" viewBox="0 0 60 60" version="1.1" xmlns="http://www.w3.org/2000/svg" xmlns:xlink="http://www.w3.org/1999/xlink">
    <!-- Generator: Sketch 51.3 (57544) - http://www.bohemiancoding.com/sketch -->
    <title>Group 7</title>
    <desc>Created with Sketch.</desc>
    <defs></defs>
    <g id="Planning-app---NEW" stroke="none" stroke-width="1" fill="none" fill-rule="evenodd">
        <g id="Projects---Overview---No-data" transform="translate(-720.000000, -333.000000)">
            <g id="Group-44" transform="translate(608.000000, 279.000000)">
                <g id="Group-7" transform="translate(112.000000, 54.000000)">
                    <g id="icon" fill="#F2F6F7">
                        <circle id="Oval-3" cx="30" cy="30" r="30"></circle>
                    </g>
                    <g id="Group-6" transform="translate(7.000000, 9.000000)">
                        <g id="Group-3-Copy" fill="#333333" fill-rule="nonzero">
                            <path d="M6.25,15.4399441 C5.60185185,15.4399441 5.09259259,15.9469274 5.09259259,16.5921788 L5.09259259,20.5558659 L1.15740741,20.5558659 C0.509259259,20.5558659 0,21.0628492 0,21.7081006 L0,31.8477654 C0,32.4930168 0.509259259,33 1.15740741,33 L11.3425926,33 C11.9907407,33 12.5,32.4930168 12.5,31.8477654 L12.5,21.7081006 C12.5,21.0628492 11.9907407,20.5558659 11.3425926,20.5558659 L7.40740741,20.5558659 L7.40740741,17.7444134 L21.3425926,17.7444134 L21.3425926,20.5558659 L17.4074074,20.5558659 C16.7592593,20.5558659 16.25,21.0628492 16.25,21.7081006 L16.25,31.8477654 C16.25,32.4930168 16.7592593,33 17.4074074,33 L27.5925926,33 C28.2407407,33 28.75,32.4930168 28.75,31.8477654 L28.75,21.7081006 C28.75,21.0628492 28.2407407,20.5558659 27.5925926,20.5558659 L23.6574074,20.5558659 L23.6574074,17.7444134 L37.5925926,17.7444134 L37.5925926,20.5558659 L33.6574074,20.5558659 C33.0092593,20.5558659 32.5,21.0628492 32.5,21.7081006 L32.5,31.8477654 C32.5,32.4930168 33.0092593,33 33.6574074,33 L43.8425926,33 C44.4907407,33 45,32.4930168 45,31.8477654 L45,21.7081006 C45,21.0628492 44.4907407,20.5558659 43.8425926,20.5558659 L39.9074074,20.5558659 L39.9074074,16.5921788 C39.9074074,15.9469274 39.3981481,15.4399441 38.75,15.4399441 L23.6574074,15.4399441 L23.6574074,12.4441341 L27.5925926,12.4441341 C28.2407407,12.4441341 28.75,11.9371508 28.75,11.2918994 L28.75,1.15223464 C28.75,0.50698324 28.2407407,0 27.5925926,0 L17.4074074,0 C16.7592593,0 16.25,0.50698324 16.25,1.15223464 L16.25,11.2918994 C16.25,11.9371508 16.7592593,12.4441341 17.4074074,12.4441341 L21.3425926,12.4441341 L21.3425926,15.4399441 L6.25,15.4399441 Z M10.1851852,22.8603352 L10.1851852,30.6955307 L2.31481481,30.6955307 L2.31481481,22.8603352 L10.1851852,22.8603352 Z M42.6851852,22.8603352 L42.6851852,30.6955307 L34.8148148,30.6955307 L34.8148148,22.8603352 L42.6851852,22.8603352 Z M18.5648148,10.1396648 L18.5648148,2.30446927 L26.4351852,2.30446927 L26.4351852,10.1396648 L18.5648148,10.1396648 Z M26.4351852,22.8603352 L26.4351852,30.6955307 L18.5648148,30.6955307 L18.5648148,22.8603352 L26.4351852,22.8603352 Z" id="Shape"></path>
                        </g>
                        <g id="Group-4" transform="translate(24.000000, 23.000000)">
                            <circle id="Oval-3" fill="#FFFFFF" cx="10" cy="10" r="10"></circle>
                            <path d="M16.4,9.4 C16.5625008,9.4 16.7031244,9.45937441 16.821875,9.578125 C16.9406256,9.69687559 17,9.83749919 17,10 C17,10.1625008 16.9406256,10.3031244 16.821875,10.421875 C16.7031244,10.5406256 16.5625008,10.6 16.4,10.6 L10.6,10.6 L10.6,16.4 C10.6,16.5625008 10.5406256,16.7031244 10.421875,16.821875 C10.3031244,16.9406256 10.1625008,17 10,17 C9.83749919,17 9.69687559,16.9406256 9.578125,16.821875 C9.45937441,16.7031244 9.4,16.5625008 9.4,16.4 L9.4,10.6 L3.6,10.6 C3.43749919,10.6 3.29687559,10.5406256 3.178125,10.421875 C3.05937441,10.3031244 3,10.1625008 3,10 C3,9.83749919 3.05937441,9.69687559 3.178125,9.578125 C3.29687559,9.45937441 3.43749919,9.4 3.6,9.4 L9.4,9.4 L9.4,3.6 C9.4,3.43749919 9.45937441,3.29687559 9.578125,3.178125 C9.69687559,3.05937441 9.83749919,3 10,3 C10.1625008,3 10.3031244,3.05937441 10.421875,3.178125 C10.5406256,3.29687559 10.6,3.43749919 10.6,3.6 L10.6,9.4 L16.4,9.4 Z" id="User-follow---simple-line-icons" stroke="#00E7E2" stroke-width="0.5" fill="#00E7E2"></path>
                        </g>
                    </g>
                </g>
            </g>
        </g>
    </g>
</svg>