<?xml version="1.0" encoding="UTF-8"?>
<svg width="64px" height="65px" viewBox="0 0 64 65" version="1.1" xmlns="http://www.w3.org/2000/svg" xmlns:xlink="http://www.w3.org/1999/xlink">
    <!-- Generator: Sketch 49.3 (51167) - http://www.bohemiancoding.com/sketch -->
    <title>Group 2</title>
    <desc>Created with Sketch.</desc>
    <defs></defs>
    <g id="Range-Vote-onboarding" stroke="none" stroke-width="1" fill="none" fill-rule="evenodd">
        <g id="range-vote-1" transform="translate(-448.000000, -423.000000)">
            <g id="Group-2" transform="translate(448.000000, 423.000000)">
                <ellipse id="Oval-3" fill="#F2F6F7" cx="32" cy="32.0109922" rx="32" ry="32.0109922"></ellipse>
                <g id="noun_67633_cc" transform="translate(13.000000, 15.000000)" fill="#000000" fill-rule="nonzero">
                    <path d="M37.9642857,6 L11.0357143,6 C10.464,6 10,5.55 10,5 C10,4.45 10.464,4 11.0357143,4 L37.9642857,4 C38.5339286,4 39,4.45 39,5 C39,5.55 38.5339286,6 37.9642857,6 Z" id="Shape"></path>
                    <path d="M37.9642857,21 L11.0357143,21 C10.464,21 10,20.55 10,20 C10,19.45 10.464,19 11.0357143,19 L37.9642857,19 C38.5339286,19 39,19.45 39,20 C39,20.55 38.5339286,21 37.9642857,21 Z" id="Shape"></path>
                    <path d="M37.9642857,35 L11.0357143,35 C10.464,35 10,34.55 10,34 C10,33.45 10.464,33 11.0357143,33 L37.9642857,33 C38.5339286,33 39,33.45 39,34 C39,34.55 38.5339286,35 37.9642857,35 Z" id="Shape"></path>
                    <path d="M3.99649045,11 C3.44476009,11 2.99697894,10.5486562 2.99697894,9.99701371 L2.99697894,4.44046966 L2.84105514,4.68720428 C2.54719876,5.1545959 1.9255026,5.29701995 1.46172926,4.99411809 C0.995956897,4.69924012 0.860023332,4.07538265 1.15787776,3.60999701 L3.15690078,0.462626027 C3.39678354,0.0875091544 3.85455981,-0.0809925425 4.28035171,0.0373598398 C4.70614362,0.163736112 5,0.554900766 5,1.00022668 L5,9.99500774 C4.99600195,10.5486562 4.5482208,11 3.99649045,11 Z" id="Shape"></path>
                    <path d="M6.91037864,25 L1.46227186,25 C1.00898938,25 0.601470989,24.7226891 0.442386271,24.3056478 C0.283301553,23.8886066 0.400980659,23.4135235 0.743121765,23.1147157 C2.3928085,21.6873168 4.83356034,19.0001954 4.83356034,17.7856166 C4.83356034,16.2679304 3.74175974,16.1496971 3.4083356,16.1496971 C2.8112231,16.1496971 2.17924271,16.8461989 2.17924271,17.5104553 C2.17924271,18.0994723 1.69109235,18.5853039 1.08962136,18.5853039 C0.488150368,18.5853039 0,18.0994723 0,17.5104553 C0,15.6380692 1.59302642,14 3.4083356,14 C5.14519205,14 7.01280305,15.1844831 7.01280305,17.7856166 C7.01280305,19.4021888 5.48951239,21.394958 4.12966494,22.8503029 L6.91037864,22.8503029 C7.51184963,22.8503029 8,23.3318351 8,23.9251515 C8,24.5163182 7.51184963,25 6.91037864,25 Z" id="Shape"></path>
                </g>
            </g>
        </g>
    </g>
</svg>