<?xml version="1.0" encoding="UTF-8"?>
<svg width="16px" height="16px" viewBox="0 0 16 16" version="1.1" xmlns="http://www.w3.org/2000/svg" xmlns:xlink="http://www.w3.org/1999/xlink">
    <!-- Generator: Sketch 49.3 (51167) - http://www.bohemiancoding.com/sketch -->
    <title>Group</title>
    <desc>Created with Sketch.</desc>
    <defs></defs>
    <g id="Symbols" stroke="none" stroke-width="1" fill="none" fill-rule="evenodd">
        <g id="Address-Book-bg" transform="translate(-34.000000, -293.000000)" fill="#8B9396" fill-rule="nonzero">
            <g id="Group-35" transform="translate(0.000000, 90.000000)">
                <g id="Group-9-Copy" transform="translate(31.000000, 200.000000)">
                    <g id="Group" transform="translate(3.000000, 3.000000)">
                        <path d="M8,5.91302727 C7.15589652,5.91302727 6.39490898,6.42150313 6.0718849,7.2013532 C5.74886083,7.98120326 5.92741433,8.87884929 6.52428615,9.47572006 C7.12115796,10.0725908 8.0188043,10.2511428 8.7986538,9.92811734 C9.5785033,9.60509191 10.0869778,8.84410348 10.0869764,8 C10.0856868,6.84792996 9.15207005,5.91431485 8,5.91302727 Z M8,9.39132182 C7.23159666,9.39132182 6.60868249,8.76840819 6.60868182,8.00000485 C6.60868115,7.23160151 7.23159424,6.60868679 7.99999758,6.60868545 C8.76840092,6.60868412 9.39131617,7.23159666 9.39131818,8 C9.39044347,8.76804179 8.76804179,9.3904451 8,9.39132182 Z" id="Shape"></path>
                        <path d="M6.08693818,2.60864727 C6.17920744,2.60875732 6.26771445,2.57208284 6.33286364,2.50674364 L7.65217091,1.18743636 L7.65217091,3.69561818 C7.65217091,3.88771888 7.8078993,4.04344727 8,4.04344727 C8.1921007,4.04344727 8.34782909,3.88771888 8.34782909,3.69561818 L8.34782909,1.18743636 L9.66713636,2.50674364 C9.80301226,2.64224655 10.0229618,2.64209541 10.1586513,2.50640587 C10.2943409,2.37071634 10.294492,2.1507668 10.1589891,2.01489091 L8.24613818,0.102050909 C8.22984619,0.0857894769 8.21198251,0.071182924 8.19280909,0.0584454545 C8.18457273,0.0529254545 8.17561273,0.0491727273 8.16699091,0.0444345455 C8.15599525,0.0378197924 8.14463338,0.0318338219 8.13296,0.0265054545 C8.12158759,0.0223049589 8.11000113,0.018708428 8.09824909,0.0157309091 C8.08818545,0.0127472727 8.07852727,0.00886363636 8.06810364,0.00679272727 C8.02314092,-0.00215592078 7.97685544,-0.00215592078 7.93189273,0.00679272727 C7.92146909,0.00886181818 7.91180909,0.0127472727 7.90174727,0.0157309091 C7.88999524,0.018708428 7.87840878,0.0223049589 7.86703636,0.0265054545 C7.85536298,0.0318338219 7.84400111,0.0378197924 7.83300545,0.0444345455 C7.82438545,0.0491618182 7.81542727,0.0529272727 7.80718727,0.0584454545 C7.78801386,0.071182924 7.77015017,0.0857894769 7.75385818,0.102050909 L5.84101091,2.01489091 C5.74155384,2.11436822 5.71180474,2.26395758 5.76563292,2.393919 C5.81946109,2.52388042 5.94626852,2.60862629 6.08693636,2.60864727 L6.08693818,2.60864727 Z" id="Shape"></path>
                        <path d="M7.75386182,15.8979564 C7.77015381,15.9142178 7.78801749,15.9288243 7.80719091,15.9415618 C7.81544909,15.9470818 7.82438727,15.9508345 7.83300909,15.9555727 C7.84400475,15.9621875 7.85536662,15.9681735 7.86704,15.9735018 C7.87841241,15.9777023 7.88999887,15.9812988 7.90175091,15.9842764 C7.91181455,15.98726 7.92147273,15.9911436 7.93189636,15.9932145 C7.97683829,16.0023717 8.02316535,16.0023717 8.06810727,15.9932145 C8.07853091,15.9911455 8.08819091,15.98726 8.09825273,15.9842764 C8.11000476,15.9812988 8.12159122,15.9777023 8.13296364,15.9735018 C8.14463702,15.9681735 8.15599889,15.9621875 8.16699455,15.9555727 C8.17561455,15.9508455 8.18455091,15.94708 8.19281273,15.9415618 C8.21198614,15.9288243 8.22984983,15.9142178 8.24614182,15.8979564 L10.1589891,13.9851164 C10.2937636,13.8491172 10.2932666,13.6297627 10.1578771,13.4943757 C10.0224876,13.3589887 9.80313305,13.3584957 9.66713636,13.4932727 L8.34782909,14.81258 L8.34782909,12.3043982 C8.34782909,12.1122975 8.1921007,11.9565691 8,11.9565691 C7.8078993,11.9565691 7.65217091,12.1122975 7.65217091,12.3043982 L7.65217091,14.81258 L6.33286364,13.4932727 C6.24504297,13.4052103 6.11688303,13.3707441 5.99673781,13.4028779 C5.87659259,13.4350117 5.78274993,13.5288544 5.7506161,13.6489996 C5.71848227,13.7691448 5.75294851,13.8973048 5.84101091,13.9851255 L7.75386182,15.8979564 Z" id="Shape"></path>
                        <path d="M0.0156363636,8.09790545 C0.0186236926,8.10980013 0.0222594268,8.12152249 0.0265272727,8.13302 C0.0317522402,8.14444232 0.037606685,8.15556607 0.0440636364,8.16634 C0.0489254545,8.17519273 0.0527909091,8.18439636 0.0584781818,8.19288545 C0.0712167523,8.21202904 0.0858082769,8.2298726 0.102041818,8.24615818 L2.01488727,10.1589927 C2.10270794,10.2470551 2.23086788,10.2815214 2.3510131,10.2493875 C2.47115832,10.2172537 2.56500098,10.123411 2.59713481,10.0032658 C2.62926864,9.88312061 2.5948024,9.75496067 2.50674,9.66714 L1.18743273,8.34783273 L3.69561455,8.34783273 C3.88771525,8.34783273 4.04344364,8.19210434 4.04344364,8.00000364 C4.04344364,7.80790293 3.88771525,7.65217455 3.69561455,7.65217455 L1.18743273,7.65217455 L2.50674,6.33286727 C2.5948024,6.2450466 2.62926864,6.11688666 2.59713481,5.99674145 C2.56500098,5.87659623 2.47115832,5.78275356 2.3510131,5.75061973 C2.23086788,5.71848591 2.10270794,5.75295215 2.01488727,5.84101455 L0.102036364,7.75385455 C0.0858028224,7.77014013 0.0712112977,7.78798369 0.0584727273,7.80712727 C0.0527836364,7.81562 0.04892,7.82482182 0.0440581818,7.83367273 C0.0376012304,7.84444666 0.0317467856,7.8555704 0.0265218182,7.86699273 C0.0222539723,7.87849024 0.0186182381,7.8902126 0.0156309091,7.90210727 C0.01268,7.91206364 0.00883818182,7.92158545 0.0068,7.93189273 C-0.00215887052,7.97686116 -0.00215887052,8.0231552 0.0068,8.06812364 C0.00883818182,8.07842727 0.01268,8.08794727 0.0156363636,8.09790545 Z" id="Shape"></path>
                        <path d="M15.9843636,7.90210182 C15.9813763,7.89020715 15.9777406,7.87848479 15.9734727,7.86698727 C15.9682478,7.85556495 15.9623933,7.8444412 15.9559364,7.83366727 C15.9510745,7.82481455 15.9472091,7.81561091 15.9415218,7.80712182 C15.9287832,7.78797823 15.9141917,7.77013467 15.8979582,7.75384909 L13.9851127,5.84101455 C13.8972921,5.75295215 13.7691321,5.71848591 13.6489869,5.75061973 C13.5288417,5.78275356 13.434999,5.87659623 13.4028652,5.99674145 C13.3707314,6.11688666 13.4051976,6.2450466 13.49326,6.33286727 L14.8125673,7.65218182 L12.3043855,7.65218182 C12.1122848,7.65218182 11.9565564,7.80791021 11.9565564,8.00001091 C11.9565564,8.19211161 12.1122848,8.34784 12.3043855,8.34784 L14.8125673,8.34784 L13.49326,9.66714727 C13.4051976,9.75496794 13.3707314,9.88312788 13.4028652,10.0032731 C13.434999,10.1234183 13.5288417,10.217261 13.6489869,10.2493948 C13.7691321,10.2815286 13.8972921,10.2470624 13.9851127,10.159 L15.8979636,8.24615273 C15.9141972,8.22986714 15.9287887,8.21202359 15.9415273,8.19288 C15.9472164,8.18438727 15.95108,8.17518545 15.9559418,8.16633455 C15.9623988,8.15556062 15.9682532,8.14443687 15.9734782,8.13301455 C15.977746,8.12151703 15.9813818,8.10979467 15.9843691,8.0979 C15.98732,8.08794364 15.9911618,8.07842182 15.9932,8.06811455 C16.0021589,8.02314611 16.0021589,7.97685207 15.9932,7.93188364 C15.9911618,7.92158 15.98732,7.91205818 15.9843636,7.90210182 Z" id="Shape"></path>
                    </g>
                </g>
            </g>
        </g>
    </g>
</svg>