<svg xmlns="http://www.w3.org/2000/svg" width="22" height="22">
    <g fill="#8B9396" fill-rule="nonzero">
        <path d="M11 8.913a2.087 2.087 0 1 0 0 4.174 2.087 2.087 0 0 0 0-4.174zm0 3.478a1.391 1.391 0 1 1 0-2.782 1.391 1.391 0 0 1 0 2.782zM9.087 5.609c.092 0 .18-.037.246-.102l1.32-1.32v2.509a.348.348 0 0 0 .695 0V4.187l1.32 1.32a.348.348 0 0 0 .491-.492l-1.913-1.913a.348.348 0 0 0-.053-.044l-.026-.014a.34.34 0 0 0-.034-.017.344.344 0 0 0-.035-.011l-.03-.01a.349.349 0 0 0-.136 0l-.03.01a.344.344 0 0 0-.035.01.34.34 0 0 0-.034.018l-.026.014a.348.348 0 0 0-.053.044L8.84 5.015a.348.348 0 0 0 .246.594zM10.754 18.898c.016.016.034.03.053.044l.026.014a.34.34 0 0 0 .034.018.344.344 0 0 0 .035.01l.03.01c.045.008.091.008.136 0l.03-.01a.344.344 0 0 0 .035-.01.34.34 0 0 0 .034-.018l.026-.014a.348.348 0 0 0 .053-.044l1.913-1.913a.348.348 0 0 0-.492-.492l-1.32 1.32v-2.509a.348.348 0 0 0-.695 0v2.509l-1.32-1.32a.348.348 0 1 0-.491.492l1.913 1.913zM3.016 11.098a.336.336 0 0 0 .01.035.34.34 0 0 0 .018.033l.014.027a.35.35 0 0 0 .044.053l1.913 1.913a.348.348 0 1 0 .492-.492l-1.32-1.32h2.509a.348.348 0 0 0 0-.695H4.187l1.32-1.32a.348.348 0 1 0-.492-.491l-1.913 1.913a.35.35 0 0 0-.044.053l-.014.027a.34.34 0 0 0-.017.033.336.336 0 0 0-.011.035l-.01.03a.349.349 0 0 0 0 .136l.01.03zM18.984 10.902a.336.336 0 0 0-.01-.035.34.34 0 0 0-.018-.033l-.014-.027a.35.35 0 0 0-.044-.053L16.985 8.84a.348.348 0 1 0-.492.492l1.32 1.32h-2.509a.348.348 0 0 0 0 .695h2.509l-1.32 1.32a.348.348 0 1 0 .492.491l1.913-1.913a.35.35 0 0 0 .044-.053l.014-.027a.34.34 0 0 0 .017-.033.336.336 0 0 0 .011-.035l.01-.03a.349.349 0 0 0 0-.136l-.01-.03z"/>
    </g>
</svg>
