<?xml version="1.0" encoding="UTF-8"?>
<svg width="60px" height="60px" viewBox="0 0 60 60" version="1.1" xmlns="http://www.w3.org/2000/svg" xmlns:xlink="http://www.w3.org/1999/xlink">
    <!-- Generator: sketchtool 51.2 (57519) - http://www.bohemiancoding.com/sketch -->
    <title>F13B10D6-28F2-48C4-A1A1-199E447FA554-16983-00014C7A80174E58@2x</title>
    <desc>Created with sketchtool.</desc>
    <defs></defs>
    <g id="Planning-suite---NEW" stroke="none" stroke-width="1" fill="none" fill-rule="evenodd">
        <g id="Allocations-app---default" transform="translate(-363.000000, -166.000000)">
            <g id="Planning---Tools">
                <g id="Icon_Transfer_Tokens" transform="translate(363.000000, 166.000000)">
                    <g id="icon">
                        <circle id="Oval-3" fill="#F2F6F7" cx="30" cy="30" r="30"></circle>
                        <g id="Group-3" transform="translate(5.000000, 12.000000)" stroke="#000000">
                            <path d="M9.06405885,40.4541325 C10.2126706,40.4524132 11.3382448,40.4515535 12.4407814,40.4515535 C22.013717,40.4515535 29.8037038,34.2984896 29.9258671,24.1464473 C30.0480305,13.9944049 21.5464053,7.21646664 11.9734696,7.21646664" id="Oval-3" opacity="0.669999957" transform="translate(19.495613, 23.835300) rotate(133.000000) translate(-19.495613, -23.835300) "></path>
                            <g id="Group-4" transform="translate(11.000000, 27.000000)">
                                <path d="M0.399414062,3.5534668 L3.10153295,0.851347907" id="Path-9"></path>
                                <path d="M2.39941406,5.5534668 L5.10153295,2.85134791" id="Path-9"></path>
                                <path d="M5.07177734,6.88110352 L7.10153295,4.85134791" id="Path-9"></path>
                            </g>
                            <circle id="Oval-3" stroke-width="1.5" fill="#FFFFFF" cx="26.3333333" cy="16.6666667" r="16.6666667"></circle>
                            <path d="M26.3333333,29.3333333 C33.3289402,29.3333333 39,23.6622735 39,16.6666667 C39,9.67105984 33.3289402,4 26.3333333,4 C19.3377265,4 13.6666667,9.67105984 13.6666667,16.6666667 C13.6666667,20.5541169 15.4178964,24.0325455 18.1744925,26.356089" id="Oval-3" opacity="0.5" stroke-linecap="round" stroke-linejoin="round" transform="translate(26.333333, 16.666667) rotate(110.000000) translate(-26.333333, -16.666667) "></path>
                            <path d="M33.8887156,25.1298429 C35.4986047,23.4367286 36.48661,21.1467317 36.48661,18.6259739 C36.48661,13.4123245 32.2601122,9.18582666 27.0464628,9.18582666 C21.8328135,9.18582666 17.6063156,13.4123245 17.6063156,18.6259739 C17.6063156,21.5231924 18.911463,24.1155775 20.9658845,25.847256" id="Oval-3" opacity="0.200000003" stroke-linecap="round" stroke-linejoin="round" transform="translate(27.046463, 17.516541) rotate(140.000000) translate(-27.046463, -17.516541) "></path>
                        </g>
                        <path d="M42.1790194,45.9395667 C42.2976061,45.9395667 42.416191,45.9642719 42.5347777,46.013683 C42.6533643,46.0630941 42.7620672,46.1273276 42.8608894,46.2063854 C42.9399472,46.3052076 43.0041807,46.4089694 43.0535918,46.5176739 C43.1030029,46.6263783 43.1277081,46.7499043 43.1277081,46.8882554 L43.1277081,51.2759407 L53,43.0935006 L43.1277081,35 L43.1277081,39.2690992 C43.1277081,39.526037 43.0338284,39.7483837 42.8460661,39.936146 C42.6583039,40.1239082 42.4359572,40.2177879 42.1790194,40.2177879 C40.835037,40.2177879 39.5701314,40.3116676 38.3842645,40.4994299 C37.1983977,40.6871921 36.0965463,40.9737723 35.0786773,41.359179 C34.0608083,41.7445857 33.1368343,42.2189253 32.3067275,42.7822121 C31.4766207,43.3454988 30.7453471,44.0026568 30.1128848,44.7537058 C29.1444269,45.8605148 28.4180944,47.056246 27.9338655,48.340935 C27.4496365,49.6256241 27.1383511,50.8411193 27,51.9874572 C27.5138756,51.2759371 28.1463284,50.5594867 28.8973774,49.8380844 C29.6484264,49.1166821 30.6119287,48.4694061 31.7879133,47.8962372 C32.9638979,47.3230682 34.3967988,46.8536696 36.0866591,46.4880274 C37.7765193,46.1223851 39.8072857,45.9395667 42.1790194,45.9395667 Z" id="Path" stroke="#00E7E2" fill="#FFFFFF" stroke-linecap="round" stroke-linejoin="round"></path>
                    </g>
                </g>
            </g>
        </g>
    </g>
</svg>