<svg width="60px" height="60px" viewBox="0 0 60 60" version="1.1" xmlns="http://www.w3.org/2000/svg" xmlns:xlink="http://www.w3.org/1999/xlink">
    <!-- Generator: Sketch 49.3 (51167) - http://www.bohemiancoding.com/sketch -->
    <title>New_account</title>
    <desc>Created with Sketch.</desc>
    <defs></defs>
    <g id="Planning-suite---NEW" stroke="none" stroke-width="1" fill="none" fill-rule="evenodd">
        <g id="Allocations-app---no-data" transform="translate(-724.000000, -327.000000)">
            <g id="Group-6-Copy" transform="translate(612.000000, 279.000000)">
                <g id="New_account" transform="translate(111.000000, 43.000000)">
                    <g id="Group-6">
                        <g id="icon" transform="translate(1.000000, 5.000000)" fill="#F2F6F7">
                            <circle id="Oval-3" cx="30" cy="30" r="30"></circle>
                        </g>
                        <g id="Group" transform="translate(11.000000, 15.000000)" fill="#000000" fill-rule="nonzero">
                            <path d="M20,14.7825682 C17.8897413,14.7825682 15.9872725,16.0537578 15.1797123,18.003383 C14.3721521,19.9530082 14.8185358,22.1971232 16.3107154,23.6893002 C17.8028949,25.1814771 20.0470107,25.6278569 21.9966345,24.8202933 C23.9462583,24.0127298 25.2174446,22.1102587 25.2174409,20 C25.214217,17.1198249 22.8801751,14.7857871 20,14.7825682 Z M20,23.4783045 C18.0789916,23.4783045 16.5217062,21.9210205 16.5217045,20.0000121 C16.5217029,18.0790038 18.0789856,16.521717 19.9999939,16.5217136 C21.9210023,16.5217103 23.4782904,18.0789916 23.4782955,20 C23.4761087,21.9201045 21.9201045,23.4761127 20,23.4783045 Z" id="Shape"></path>
                            <path d="M15.2173455,6.52161818 C15.4480186,6.5218933 15.6692861,6.43020711 15.8321591,6.26685909 L19.1304273,2.96859091 L19.1304273,9.23904545 C19.1304273,9.71929721 19.5197482,10.1086182 20,10.1086182 C20.4802518,10.1086182 20.8695727,9.71929721 20.8695727,9.23904545 L20.8695727,2.96859091 L24.1678409,6.26685909 C24.5075306,6.60561638 25.0574045,6.60523851 25.3966283,6.26601468 C25.7358522,5.92679085 25.73623,5.376917 25.3974727,5.03722727 L20.6153455,0.255127273 C20.5746155,0.214473692 20.5299563,0.17795731 20.4820227,0.146113636 C20.4614318,0.132313636 20.4390318,0.122931818 20.4174773,0.111086364 C20.3899881,0.0945494811 20.3615835,0.0795845547 20.3324,0.0662636364 C20.303969,0.0557623972 20.2750028,0.04677107 20.2456227,0.0393272727 C20.2204636,0.0318681818 20.1963182,0.0221590909 20.1702591,0.0169818182 C20.0578523,-0.00538980194 19.9421386,-0.00538980194 19.8297318,0.0169818182 C19.8036727,0.0221545455 19.7795227,0.0318681818 19.7543682,0.0393272727 C19.7249881,0.04677107 19.6960219,0.0557623972 19.6675909,0.0662636364 C19.6384075,0.0795845547 19.6100028,0.0945494811 19.5825136,0.111086364 C19.5609636,0.122904545 19.5385682,0.132318182 19.5179682,0.146113636 C19.4700346,0.17795731 19.4253754,0.214473692 19.3846455,0.255127273 L14.6025273,5.03722727 C14.3538846,5.28592055 14.2795118,5.65989395 14.4140823,5.9847975 C14.5486527,6.30970106 14.8656713,6.52156572 15.2173409,6.52161818 L15.2173455,6.52161818 Z" id="Shape"></path>
                            <path d="M19.3846545,39.7448909 C19.4253845,39.7855445 19.4700437,39.8220609 19.5179773,39.8539045 C19.5386227,39.8677045 19.5609682,39.8770864 19.5825227,39.8889318 C19.6100119,39.9054687 19.6384165,39.9204336 19.6676,39.9337545 C19.696031,39.9442558 19.7249972,39.9532471 19.7543773,39.9606909 C19.7795364,39.96815 19.8036818,39.9778591 19.8297409,39.9830364 C19.9420957,40.0059293 20.0579134,40.0059293 20.1702682,39.9830364 C20.1963273,39.9778636 20.2204773,39.96815 20.2456318,39.9606909 C20.2750119,39.9532471 20.3039781,39.9442558 20.3324091,39.9337545 C20.3615925,39.9204336 20.3899972,39.9054687 20.4174864,39.8889318 C20.4390364,39.8771136 20.4613773,39.8677 20.4820318,39.8539045 C20.5299654,39.8220609 20.5746246,39.7855445 20.6153545,39.7448909 L25.3974727,34.9627909 C25.734409,34.622793 25.7331664,34.0744066 25.3946927,33.7359392 C25.056219,33.3974717 24.5078326,33.3962392 24.1678409,33.7331818 L20.8695727,37.03145 L20.8695727,30.7609955 C20.8695727,30.2807437 20.4802518,29.8914227 20,29.8914227 C19.5197482,29.8914227 19.1304273,30.2807437 19.1304273,30.7609955 L19.1304273,37.03145 L15.8321591,33.7331818 C15.6126074,33.5130258 15.2922076,33.4268602 14.9918445,33.5071948 C14.6914815,33.5875294 14.4568748,33.822136 14.3765402,34.1224991 C14.2962057,34.4228621 14.3823713,34.743262 14.6025273,34.9628136 L19.3846545,39.7448909 Z" id="Shape"></path>
                            <path d="M0.0390909091,20.2447636 C0.0465592316,20.2745003 0.0556485671,20.3038062 0.0663181818,20.33255 C0.0793806005,20.3611058 0.0940167124,20.3889152 0.110159091,20.41585 C0.122313636,20.4379818 0.131977273,20.4609909 0.146195455,20.4822136 C0.178041881,20.5300726 0.214520692,20.5746815 0.255104545,20.6153955 L5.03721818,25.3974818 C5.25676986,25.6176378 5.57716971,25.7038034 5.87753275,25.6234688 C6.1778958,25.5431343 6.41250246,25.3085276 6.49283703,25.0081646 C6.5731716,24.7078015 6.487006,24.3874017 6.26685,24.16785 L2.96858182,20.8695818 L9.23903636,20.8695818 C9.71928812,20.8695818 10.1086091,20.4802608 10.1086091,20.0000091 C10.1086091,19.5197573 9.71928812,19.1304364 9.23903636,19.1304364 L2.96858182,19.1304364 L6.26685,15.8321682 C6.487006,15.6126165 6.5731716,15.2922167 6.49283703,14.9918536 C6.41250246,14.6914906 6.1778958,14.4568839 5.87753275,14.3765493 C5.57716971,14.2962148 5.25676986,14.3823804 5.03721818,14.6025364 L0.255090909,19.3846364 C0.214507056,19.4253503 0.178028244,19.4699592 0.146181818,19.5178182 C0.131959091,19.53905 0.1223,19.5620545 0.110145455,19.5841818 C0.0940030761,19.6111166 0.0793669641,19.638926 0.0663045455,19.6674818 C0.0556349307,19.6962256 0.0465455952,19.7255315 0.0390772727,19.7552682 C0.0317,19.7801591 0.0220954545,19.8039636 0.017,19.8297318 C-0.00539717631,19.9421529 -0.00539717631,20.057888 0.017,20.1703091 C0.0220954545,20.1960682 0.0317,20.2198682 0.0390909091,20.2447636 Z" id="Shape"></path>
                            <path d="M39.9609091,19.7552545 C39.9534408,19.7255179 39.9443514,19.696212 39.9336818,19.6674682 C39.9206194,19.6389124 39.9059833,19.611103 39.8898409,19.5841682 C39.8776864,19.5620364 39.8680227,19.5390273 39.8538045,19.5178045 C39.8219581,19.4699456 39.7854793,19.4253367 39.7448955,19.3846227 L34.9627818,14.6025364 C34.7432301,14.3823804 34.4228303,14.2962148 34.1224672,14.3765493 C33.8221042,14.4568839 33.5874975,14.6914906 33.507163,14.9918536 C33.4268284,15.2922167 33.512994,15.6126165 33.73315,15.8321682 L37.0314182,19.1304545 L30.7609636,19.1304545 C30.2807119,19.1304545 29.8913909,19.5197755 29.8913909,20.0000273 C29.8913909,20.480279 30.2807119,20.8696 30.7609636,20.8696 L37.0314182,20.8696 L33.73315,24.1678682 C33.512994,24.3874199 33.4268284,24.7078197 33.507163,25.0081828 C33.5874975,25.3085458 33.8221042,25.5431525 34.1224672,25.623487 C34.4228303,25.7038216 34.7432301,25.617656 34.9627818,25.3975 L39.7449091,20.6153818 C39.7854929,20.5746679 39.8219718,20.530059 39.8538182,20.4822 C39.8680409,20.4609682 39.8777,20.4379636 39.8898545,20.4158364 C39.9059969,20.3889015 39.920633,20.3610922 39.9336955,20.3325364 C39.9443651,20.3037926 39.9534544,20.2744867 39.9609227,20.24475 C39.9683,20.2198591 39.9779045,20.1960545 39.983,20.1702864 C40.0053972,20.0578653 40.0053972,19.9421302 39.983,19.8297091 C39.9779045,19.80395 39.9683,19.7801455 39.9609091,19.7552545 Z" id="Shape"></path>
                        </g>
                        <g id="Group-3-Copy">
                            <g id="Permissions_Normal">
                                <rect id="Rectangle" x="0" y="0" width="59" height="59"></rect>
                            </g>
                        </g>
                    </g>
                    <g id="Group-4" transform="translate(32.000000, 37.000000)">
                        <circle id="Oval-3" fill="#FFFFFF" cx="10" cy="10" r="10"></circle>
                        <path d="M16.4,9.4 C16.5625008,9.4 16.7031244,9.45937441 16.821875,9.578125 C16.9406256,9.69687559 17,9.83749919 17,10 C17,10.1625008 16.9406256,10.3031244 16.821875,10.421875 C16.7031244,10.5406256 16.5625008,10.6 16.4,10.6 L10.6,10.6 L10.6,16.4 C10.6,16.5625008 10.5406256,16.7031244 10.421875,16.821875 C10.3031244,16.9406256 10.1625008,17 10,17 C9.83749919,17 9.69687559,16.9406256 9.578125,16.821875 C9.45937441,16.7031244 9.4,16.5625008 9.4,16.4 L9.4,10.6 L3.6,10.6 C3.43749919,10.6 3.29687559,10.5406256 3.178125,10.421875 C3.05937441,10.3031244 3,10.1625008 3,10 C3,9.83749919 3.05937441,9.69687559 3.178125,9.578125 C3.29687559,9.45937441 3.43749919,9.4 3.6,9.4 L9.4,9.4 L9.4,3.6 C9.4,3.43749919 9.45937441,3.29687559 9.578125,3.178125 C9.69687559,3.05937441 9.83749919,3 10,3 C10.1625008,3 10.3031244,3.05937441 10.421875,3.178125 C10.5406256,3.29687559 10.6,3.43749919 10.6,3.6 L10.6,9.4 L16.4,9.4 Z" id="User-follow---simple-line-icons" stroke="#00E7E2" stroke-width="0.5" fill="#00E7E2"></path>
                    </g>
                </g>
            </g>
        </g>
    </g>
</svg>