<?xml version="1.0" encoding="UTF-8"?>
<svg width="19px" height="14px" viewBox="0 0 19 14" version="1.1" xmlns="http://www.w3.org/2000/svg" xmlns:xlink="http://www.w3.org/1999/xlink">
    <!-- Generator: Sketch 52.6 (67491) - http://www.bohemiancoding.com/sketch -->
    <title>Group 17</title>
    <desc>Created with Sketch.</desc>
    <g id="Symbols" stroke="none" stroke-width="1" fill="none" fill-rule="evenodd">
        <g id="Consenus-App---bg" transform="translate(-34.000000, -415.000000)">
            <g id="Group-17" transform="translate(33.000000, 412.000000)">
                <rect id="Rectangle-Copy-2" x="0" y="0" width="22" height="22"></rect>
                <rect id="Rectangle-path" x="1" y="2" width="16.8888889" height="16.8888889"></rect>
                <g id="Group-5" transform="translate(2.000000, 4.000000)" fill="#8B9396" fill-rule="nonzero" stroke="#8B9396" stroke-width="0.5">
                    <path d="M17.3320312,5.72167969 L17.3320312,5.38769531 L14.9941406,5.38769531 L13.6582031,5.38769531 C13.5660234,5.38769531 13.4912109,5.46234082 13.4912109,5.5546875 L13.4912109,5.72167969 L9.984375,5.72167969 C9.94012207,5.72167969 9.89753906,5.73921387 9.86631152,5.7706084 L7.92369141,7.71322852 L1.21494727,6.5464541 C0.945087891,6.49986328 0.670719727,6.57367383 0.461311523,6.74985059 C0.25190332,6.92586035 0.131835938,7.18386328 0.131835938,7.45756348 C0.131835938,7.78503516 0.307678711,8.09113184 0.590563477,8.25628711 L7.87626563,12.5062383 C8.02037988,12.5902354 8.18085938,12.6324844 8.34200684,12.6324844 C8.48328223,12.6324844 8.6248916,12.5999209 8.75581348,12.53446 L12.3616758,10.7314453 L13.4912109,10.7314453 L13.4912109,10.8984375 C13.4912109,10.9907842 13.5660234,11.0654297 13.6582031,11.0654297 L14.9941406,11.0654297 L17.3320312,11.0654297 L17.3320312,10.7314453 L15.1611328,10.7314453 L15.1611328,5.72167969 L17.3320312,5.72167969 Z M12.3222656,10.3974609 C12.2963818,10.3974609 12.270665,10.4034727 12.2476201,10.4149951 L8.60635547,12.2357109 C8.42750684,12.3252188 8.21726367,12.3187061 8.04459375,12.2176758 L0.758891602,7.96772461 C0.578039063,7.86218555 0.465820312,7.6666377 0.465820312,7.45756348 C0.465820312,7.28272266 0.542469727,7.11790137 0.676230469,7.00534863 C0.809991211,6.8927959 0.985166016,6.84553711 1.15766895,6.8755957 L7.63479492,8.002125 L7.13699121,8.49992871 C6.92708203,8.71000488 6.81152344,8.98888184 6.81152344,9.28579395 C6.81152344,9.89882227 7.31016211,10.3974609 7.92319043,10.3974609 C8.22026953,10.3974609 8.49948047,10.2819023 8.70922266,10.0718262 L10.4364229,8.34462598 L10.2002959,8.10849902 L8.47292871,9.83569922 C8.32614258,9.98265234 8.13092871,10.0634766 7.92319043,10.0634766 C7.49435449,10.0634766 7.14550781,9.71462988 7.14550781,9.28579395 C7.14550781,9.07822266 7.22633203,8.8828418 7.37328516,8.73588867 L10.0535098,6.05566406 L13.4912109,6.05566406 L13.4912109,10.3974609 L12.3222656,10.3974609 Z M13.8251953,5.72167969 L14.8271484,5.72167969 L14.8271484,10.7314453 L13.8251953,10.7314453 L13.8251953,5.72167969 Z" id="Shape"></path>
                    <path d="M6.1875,5.625 C7.73837171,5.625 9,4.36337171 9,2.8125 C9,1.26162829 7.73837171,0 6.1875,0 C4.63662829,0 3.375,1.26162829 3.375,2.8125 C3.375,4.36337171 4.63662829,5.625 6.1875,5.625 Z M6.1875,0.296052632 C7.57509868,0.296052632 8.70394737,1.42490132 8.70394737,2.8125 C8.70394737,4.20009868 7.57509868,5.32894737 6.1875,5.32894737 C4.79990132,5.32894737 3.67105263,4.20009868 3.67105263,2.8125 C3.67105263,1.42490132 4.79990132,0.296052632 6.1875,0.296052632 Z" id="Shape"></path>
                </g>
            </g>
        </g>
    </g>
</svg>