<svg xmlns="http://www.w3.org/2000/svg" width="56" height="56">
    <defs>
        <linearGradient id="a" x1="104.435%" x2="16.249%" y1="107.603%" y2="14.185%">
            <stop offset="0%" stop-color="#32FAE7"/>
            <stop offset="100%" stop-color="#34ACB2"/>
        </linearGradient>
    </defs>
    <g fill="none" fill-rule="evenodd">
        <path fill="url(#a)" d="M0 0h56v56H0z"/>
        <path fill="#FFF" fill-rule="nonzero" stroke="#FFF" d="M12.03 28.173c-.005-.017-.013-.034-.017-.052a.553.553 0 0 1 0-.241c.004-.019.012-.036.018-.053a.55.55 0 0 1 .021-.062c.01-.02.022-.04.035-.06.01-.015.017-.031.029-.046a.64.64 0 0 1 .086-.094l3.784-3.384a.745.745 0 0 1 .665-.16.656.656 0 0 1 .487.435.572.572 0 0 1-.178.595l-2.61 2.334h4.962c.38 0 .688.275.688.615 0 .34-.308.615-.688.615h-4.963l2.61 2.334a.572.572 0 0 1 .18.595.656.656 0 0 1-.488.435.745.745 0 0 1-.665-.16l-3.784-3.384a.64.64 0 0 1-.086-.094c-.012-.015-.02-.031-.029-.047a.582.582 0 0 1-.035-.059.55.55 0 0 1-.021-.062zm31.94-.346c.005.017.013.034.017.052a.553.553 0 0 1 0 .241c-.004.019-.012.036-.018.053a.55.55 0 0 1-.021.062.582.582 0 0 1-.035.06c-.01.015-.017.031-.029.046a.64.64 0 0 1-.086.094l-3.784 3.384a.745.745 0 0 1-.665.16.656.656 0 0 1-.487-.435.572.572 0 0 1 .178-.595l2.61-2.334h-4.962c-.38 0-.688-.275-.688-.615 0-.34.308-.615.688-.615h4.963l-2.61-2.334a.572.572 0 0 1-.18-.595.656.656 0 0 1 .488-.435.745.745 0 0 1 .665.16l3.784 3.384a.64.64 0 0 1 .086.094c.012.015.02.031.029.047a.573.573 0 0 1 .035.059.55.55 0 0 1 .021.062zM28 24a4 4 0 1 1-3.695 2.47A4 4 0 0 1 28 24zm0 6.667a2.667 2.667 0 1 0 0-5.333 2.667 2.667 0 0 0 0 5.333zM24.615 17.16c-.249 0-.473-.168-.568-.425a.749.749 0 0 1 .133-.75l3.385-3.784a.636.636 0 0 1 .094-.087c.015-.01.03-.018.046-.027a.582.582 0 0 1 .06-.036.563.563 0 0 1 .061-.021c.018-.006.035-.014.054-.018a.553.553 0 0 1 .24 0c.02.004.036.012.054.018l.062.021c.02.01.04.023.06.036l.045.027a.636.636 0 0 1 .095.087l3.384 3.784c.24.27.24.704 0 .973a.57.57 0 0 1-.87 0l-2.334-2.61v4.963c0 .38-.276.688-.616.688-.34 0-.615-.308-.615-.688v-4.963l-2.334 2.61a.583.583 0 0 1-.436.202zm2.95 26.637l-3.384-3.785a.745.745 0 0 1-.16-.665.656.656 0 0 1 .435-.487.572.572 0 0 1 .595.18l2.335 2.61v-4.963c0-.38.275-.688.615-.688.34 0 .616.308.616.688v4.963l2.334-2.61a.57.57 0 0 1 .869.002c.24.267.24.701.002.97l-3.385 3.785a.636.636 0 0 1-.095.086c-.014.011-.03.019-.045.028a.582.582 0 0 1-.06.035.563.563 0 0 1-.062.022c-.018.006-.035.013-.053.017a.541.541 0 0 1-.241 0c-.019-.004-.036-.011-.054-.017a.563.563 0 0 1-.061-.022.582.582 0 0 1-.06-.035c-.015-.01-.031-.017-.046-.028a.636.636 0 0 1-.094-.086z"/>
    </g>
</svg>
