<svg xmlns="http://www.w3.org/2000/svg" width="56" height="56">
    <defs>
        <linearGradient id="a" x1="36.905%" x2="72.822%" y1="3.803%" y2="80.798%">
            <stop offset="0%" stop-color="#EF0ECD"/>
            <stop offset="100%" stop-color="#EF325E"/>
        </linearGradient>
        <radialGradient id="b" cx="100%" cy="107.255%" r="106.25%" fx="100%" fy="107.255%" gradientTransform="matrix(0 .94118 -1 0 2.073 .131)">
            <stop offset="0%" stop-color="#FFF" stop-opacity=".8"/>
            <stop offset="100%" stop-color="#FFF"/>
        </radialGradient>
    </defs>
    <g fill="none" fill-rule="evenodd">
        <path fill="url(#a)" d="M0 0h56v56H0z"/>
        <path fill="url(#b)" fill-rule="nonzero" d="M5.47 0h22.005c.29 0 .525.238.525.531V33.47a.528.528 0 0 1-.525.531H5.47A1.476 1.476 0 0 1 4 32.513V1.488C4 .663 4.655 0 5.47 0zm6.435 23.18c.71 0 1.325-.162 1.845-.488a3.22 3.22 0 0 0 1.193-1.312 6.85 6.85 0 0 0 .592-1.717 9.68 9.68 0 0 0 .18-1.913c0-.7-.062-1.352-.188-1.957a6.797 6.797 0 0 0-.6-1.718 3.151 3.151 0 0 0-1.184-1.282c-.516-.316-1.128-.473-1.838-.473-.57 0-1.082.11-1.537.33-.456.22-.82.505-1.095.855-.276.35-.505.767-.69 1.252A6.79 6.79 0 0 0 8.2 16.22c-.07.49-.105 1-.105 1.53 0 .55.037 1.07.112 1.56.076.49.203.977.383 1.463.18.485.41.9.69 1.244.28.346.645.625 1.095.84.45.216.96.323 1.53.323zm0-1.71c-.37 0-.69-.105-.96-.315a1.944 1.944 0 0 1-.615-.863 5.723 5.723 0 0 1-.307-1.177 8.942 8.942 0 0 1-.098-1.365c0-.49.03-.94.09-1.35.06-.41.16-.802.3-1.177.14-.376.345-.668.615-.878.27-.21.595-.315.975-.315.37 0 .69.105.96.315.27.21.477.497.623.862.145.366.25.755.315 1.17.065.416.097.873.097 1.373 0 .48-.032.927-.098 1.343a5.896 5.896 0 0 1-.307 1.177 2 2 0 0 1-.615.878c-.27.215-.595.322-.975.322zm5.4 1.53h2.025l1.23-1.86c.21-.3.35-.53.42-.69.17.31.305.54.405.69L22.63 23h2.025l-2.67-3.99 2.475-3.675h-2.025l-1.05 1.56c-.1.15-.235.38-.405.69-.04-.1-.18-.33-.42-.69l-1.035-1.56H17.5l2.46 3.675L17.305 23zM30.839 1c.561 0 1.076.565 1.156 1.303L32 2.39v4.167C32 7.393 31.471 8 30.839 8h-1.452C29.173 8 29 7.751 29 7.444V1.556c0-.307.173-.556.387-.556h1.452zm0 8c.561 0 1.076.565 1.156 1.303l.005.086v4.167c0 .837-.529 1.444-1.161 1.444h-1.452c-.214 0-.387-.249-.387-.556V9.556c0-.307.173-.556.387-.556h1.452zm0 8c.561 0 1.076.565 1.156 1.303l.005.086v4.167c0 .837-.529 1.444-1.161 1.444h-1.452c-.214 0-.387-.249-.387-.556v-5.888c0-.307.173-.556.387-.556h1.452zM1 1h1.8c.11 0 .2.09.2.2v1.6a.2.2 0 0 1-.2.2H1a1 1 0 1 1 0-2zm0 4.833h1.8c.11 0 .2.09.2.2v1.6a.2.2 0 0 1-.2.2H1a1 1 0 1 1 0-2zm0 4.834h1.8c.11 0 .2.09.2.2v1.6a.2.2 0 0 1-.2.2H1a1 1 0 0 1 0-2zM1 15.5h1.8c.11 0 .2.09.2.2v1.6a.2.2 0 0 1-.2.2H1a1 1 0 0 1 0-2zm0 4.833h1.8c.11 0 .2.09.2.2v1.6a.2.2 0 0 1-.2.2H1a1 1 0 1 1 0-2zm0 4.834h1.8c.11 0 .2.09.2.2v1.6a.2.2 0 0 1-.2.2H1a1 1 0 0 1 0-2zM1 30h1.8c.11 0 .2.09.2.2v1.6a.2.2 0 0 1-.2.2H1a1 1 0 0 1 0-2z" transform="translate(12 11)"/>
    </g>
</svg>
