<?xml version="1.0" encoding="UTF-8"?>
<svg width="16px" height="20px" viewBox="0 0 16 20" version="1.1" xmlns="http://www.w3.org/2000/svg" xmlns:xlink="http://www.w3.org/1999/xlink">
    <!-- Generator: sketchtool 51.2 (57519) - http://www.bohemiancoding.com/sketch -->
    <title>134B8AE6-976D-4F14-B3A0-30916553447A-16983-00014C7E14666263</title>
    <desc>Created with sketchtool.</desc>
    <defs></defs>
    <g id="Planning-app---NEW" stroke="none" stroke-width="1" fill="none" fill-rule="evenodd">
        <g id="Address-book---New-entity" transform="translate(-33.000000, -537.000000)" fill="#000000" stroke="#000000" stroke-width="0.1">
            <g id="Address-book---default">
                <g id="Address-Book-bg">
                    <g id="Group-35" transform="translate(0.000000, 90.000000)">
                        <g id="Group-16" transform="translate(30.000000, 446.000000)">
                            <g id="Group-11" transform="translate(3.000000, 2.000000)">
                                <g id="Group-12">
                                    <path d="M1.94285714,0 L13.9142857,0 C14.0720814,0 14.2,0.127918643 14.2,0.285714286 L14.2,18 C14.2,18.1577956 14.0720814,18.2857143 13.9142857,18.2857143 L1.94285714,18.2857143 C1.49934721,18.2857143 1.14285714,17.9292242 1.14285714,17.4857143 L1.14285714,0.8 C1.14285714,0.356490071 1.49934721,0 1.94285714,0 Z M1.94285714,0.571428571 C1.8149385,0.571428571 1.71428571,0.672081357 1.71428571,0.8 L1.71428571,17.4857143 C1.71428571,17.6136329 1.8149385,17.7142857 1.94285714,17.7142857 L13.6285714,17.7142857 L13.6285714,0.571428571 L1.94285714,0.571428571 Z" id="Shape" fill-rule="nonzero"></path>
                                    <path d="M15.0710301,0.857142857 C15.4855881,0.857142857 15.8652538,1.14777767 15.9245378,1.5273369 L15.9279605,1.57142857 L15.9279605,3.71428571 C15.9279605,4.14497157 15.5378915,4.45714286 15.0710301,4.45714286 L14,4.45714286 C13.8422044,4.45714286 13.7142857,4.32922421 13.7142857,4.17142857 L13.7142857,1.14285714 C13.7142857,0.9850615 13.8422044,0.857142857 14,0.857142857 L15.0710301,0.857142857 Z M15.3565319,1.60056208 C15.3315209,1.51710816 15.2080982,1.42857143 15.0710301,1.42857143 L14.2857143,1.42857143 L14.2857143,3.88571429 L15.0710301,3.88571429 C15.2467868,3.88571429 15.3565319,3.79788557 15.3565319,3.71428571 L15.3565319,1.60056208 Z" id="Shape" fill-rule="nonzero"></path>
                                    <path d="M15.0710301,4.28571429 C15.4944603,4.28571429 15.8692028,4.58561982 15.925246,4.98928052 L15.9279605,5.02857143 L15.9279605,7.14285714 C15.9279605,7.573543 15.5378915,7.88571429 15.0710301,7.88571429 L14,7.88571429 C13.8422044,7.88571429 13.7142857,7.75779564 13.7142857,7.6 L13.7142857,4.57142857 C13.7142857,4.41363293 13.8422044,4.28571429 14,4.28571429 L15.0710301,4.28571429 Z M15.0710301,4.85714286 L14.2857143,4.85714286 L14.2857143,7.31428571 L15.0710301,7.31428571 C15.2467868,7.31428571 15.3565319,7.226457 15.3565319,7.14285714 L15.3565319,5.05307674 C15.3326439,4.94847613 15.2122001,4.85714286 15.0710301,4.85714286 Z" id="Shape" fill-rule="nonzero"></path>
                                    <path d="M15.0710301,7.71428571 C15.4944603,7.71428571 15.8692028,8.01419125 15.925246,8.41785195 L15.9279605,8.45714286 L15.9279605,10.5714286 C15.9279605,11.0021144 15.5378915,11.3142857 15.0710301,11.3142857 L14,11.3142857 C13.8422044,11.3142857 13.7142857,11.1863671 13.7142857,11.0285714 L13.7142857,8 C13.7142857,7.84220436 13.8422044,7.71428571 14,7.71428571 L15.0710301,7.71428571 Z M15.0710301,8.28571429 L14.2857143,8.28571429 L14.2857143,10.7428571 L15.0710301,10.7428571 C15.2467868,10.7428571 15.3565319,10.6550284 15.3565319,10.5714286 L15.3565319,8.48164817 C15.3326439,8.37704756 15.2122001,8.28571429 15.0710301,8.28571429 Z" id="Shape" fill-rule="nonzero"></path>
                                    <path d="M0.428571429,2.17142857 C0.270775786,2.17142857 0.142857143,2.04350993 0.142857143,1.88571429 C0.142857143,1.72791864 0.270775786,1.6 0.428571429,1.6 L2.77142857,1.6 C2.92922421,1.6 3.05714286,1.72791864 3.05714286,1.88571429 C3.05714286,2.04350993 2.92922421,2.17142857 2.77142857,2.17142857 L0.428571429,2.17142857 Z" id="Shape" fill-rule="nonzero"></path>
                                    <path d="M0.428571429,16.4 C0.270775786,16.4 0.142857143,16.2720814 0.142857143,16.1142857 C0.142857143,15.9564901 0.270775786,15.8285714 0.428571429,15.8285714 L2.77142857,15.8285714 C2.92922421,15.8285714 3.05714286,15.9564901 3.05714286,16.1142857 C3.05714286,16.2720814 2.92922421,16.4 2.77142857,16.4 L0.428571429,16.4 Z" id="Shape" fill-rule="nonzero"></path>
                                    <path d="M0.428571429,14.0285714 C0.270775786,14.0285714 0.142857143,13.9006528 0.142857143,13.7428571 C0.142857143,13.5850615 0.270775786,13.4571429 0.428571429,13.4571429 L2.77142857,13.4571429 C2.92922421,13.4571429 3.05714286,13.5850615 3.05714286,13.7428571 C3.05714286,13.9006528 2.92922421,14.0285714 2.77142857,14.0285714 L0.428571429,14.0285714 Z" id="Shape" fill-rule="nonzero"></path>
                                    <path d="M0.428571429,11.6571429 C0.270775786,11.6571429 0.142857143,11.5292242 0.142857143,11.3714286 C0.142857143,11.2136329 0.270775786,11.0857143 0.428571429,11.0857143 L2.77142857,11.0857143 C2.92922421,11.0857143 3.05714286,11.2136329 3.05714286,11.3714286 C3.05714286,11.5292242 2.92922421,11.6571429 2.77142857,11.6571429 L0.428571429,11.6571429 Z" id="Shape" fill-rule="nonzero"></path>
                                    <path d="M0.428571429,9.28571429 C0.270775786,9.28571429 0.142857143,9.15779564 0.142857143,9 C0.142857143,8.84220436 0.270775786,8.71428571 0.428571429,8.71428571 L2.77142857,8.71428571 C2.92922421,8.71428571 3.05714286,8.84220436 3.05714286,9 C3.05714286,9.15779564 2.92922421,9.28571429 2.77142857,9.28571429 L0.428571429,9.28571429 Z" id="Shape" fill-rule="nonzero"></path>
                                    <path d="M0.428571429,6.91428571 C0.270775786,6.91428571 0.142857143,6.78636707 0.142857143,6.62857143 C0.142857143,6.47077579 0.270775786,6.34285714 0.428571429,6.34285714 L2.77142857,6.34285714 C2.92922421,6.34285714 3.05714286,6.47077579 3.05714286,6.62857143 C3.05714286,6.78636707 2.92922421,6.91428571 2.77142857,6.91428571 L0.428571429,6.91428571 Z" id="Shape" fill-rule="nonzero"></path>
                                    <path d="M0.428571429,4.54285714 C0.270775786,4.54285714 0.142857143,4.4149385 0.142857143,4.25714286 C0.142857143,4.09934721 0.270775786,3.97142857 0.428571429,3.97142857 L2.77142857,3.97142857 C2.92922421,3.97142857 3.05714286,4.09934721 3.05714286,4.25714286 C3.05714286,4.4149385 2.92922421,4.54285714 2.77142857,4.54285714 L0.428571429,4.54285714 Z" id="Shape" fill-rule="nonzero"></path>
                                    <path d="M6.71314286,11.2354286 C7.74514286,11.2354286 8.00114286,10.4914286 8.00114286,9.14742857 C8.00114286,7.81942857 7.74514286,7.06742857 6.71314286,7.06742857 C5.68114286,7.06742857 5.42514286,7.81942857 5.42514286,9.14742857 C5.42514286,10.4914286 5.68114286,11.2354286 6.71314286,11.2354286 Z M6.71314286,11.7314286 C5.24914286,11.7314286 4.85714286,10.8034286 4.85714286,9.14742857 C4.85714286,7.49142857 5.24914286,6.57142857 6.71314286,6.57142857 C8.17714286,6.57142857 8.56914286,7.49142857 8.56914286,9.14742857 C8.56914286,10.8034286 8.17714286,11.7314286 6.71314286,11.7314286 Z M11.1005714,11.6514286 L10.4662857,10.5942857 L9.832,11.6514286 L9.09485714,11.6514286 L10.0662857,10.1828571 L9.15771429,8.79428571 L9.88342857,8.79428571 L10.4662857,9.78857143 L11.0491429,8.79428571 L11.7748571,8.79428571 L10.8662857,10.1828571 L11.8377143,11.6514286 L11.1005714,11.6514286 Z" id="0x"></path>
                                </g>
                            </g>
                        </g>
                    </g>
                </g>
            </g>
        </g>
    </g>
</svg>