<svg xmlns="http://www.w3.org/2000/svg" width="22" height="22">
    <path fill="#8B9396" fill-rule="nonzero" d="M5.361 10.86a.433.433 0 0 0-.437.436V12.8H3.437a.433.433 0 0 0-.437.438v3.847c0 .245.192.438.437.438h3.848a.433.433 0 0 0 .437-.438v-3.847a.433.433 0 0 0-.437-.438H5.798v-1.066h5.265V12.8H9.576a.433.433 0 0 0-.437.438v3.847c0 .245.192.438.437.438h3.848a.433.433 0 0 0 .437-.438v-3.847a.433.433 0 0 0-.437-.438h-1.487v-1.066h5.265V12.8h-1.487a.433.433 0 0 0-.437.438v3.847c0 .245.192.438.437.438h3.848a.433.433 0 0 0 .437-.438v-3.847a.433.433 0 0 0-.437-.438h-1.487v-1.504a.433.433 0 0 0-.437-.437h-5.702V9.722h1.487a.433.433 0 0 0 .437-.437V5.437A.433.433 0 0 0 13.424 5H9.576a.433.433 0 0 0-.437.437v3.848c0 .245.192.437.437.437h1.487v1.137H5.36zm1.487 2.815v2.973H3.874v-2.973h2.974zm12.278 0v2.973h-2.974v-2.973h2.974zm-9.113-4.827V5.874h2.974v2.974h-2.974zm2.974 4.827v2.973h-2.974v-2.973h2.974z"/>
</svg>
