<svg xmlns="http://www.w3.org/2000/svg" viewBox="0 0 17 13">
    <path fill="#8B9396" d="M2.361 5.859a.433.433 0 0 0-.437.437V7.8H.437A.433.433 0 0 0 0 8.238v3.847c0 .245.192.438.437.438h3.848a.433.433 0 0 0 .437-.438V8.238a.433.433 0 0 0-.437-.438H2.798V6.733h5.265V7.8H6.576a.433.433 0 0 0-.437.438v3.847c0 .245.192.438.437.438h3.848a.433.433 0 0 0 .437-.438V8.238a.433.433 0 0 0-.437-.438H8.937V6.733h5.265V7.8h-1.487a.433.433 0 0 0-.437.438v3.847c0 .245.192.438.437.438h3.848a.433.433 0 0 0 .437-.438V8.238a.433.433 0 0 0-.437-.438h-1.487V6.296a.433.433 0 0 0-.437-.437H8.937V4.722h1.487a.433.433 0 0 0 .437-.437V.437A.433.433 0 0 0 10.424 0H6.576a.433.433 0 0 0-.437.437v3.848c0 .245.192.437.437.437h1.487V5.86H2.36zm1.487 2.816v2.973H.874V8.675h2.974zm12.278 0v2.973h-2.974V8.675h2.974zM7.014 3.848V.874h2.973v2.974H7.014zm2.973 4.827v2.973H7.014V8.675h2.973z"/>
</svg>
