<svg xmlns="http://www.w3.org/2000/svg" width="56" height="56">
    <defs>
        <linearGradient id="a" x1="10.91%" x2="89.628%" y1="6.686%" y2="109.19%">
            <stop offset="0%" stop-color="#37E5CA"/>
            <stop offset="100%" stop-color="#0DD25B"/>
        </linearGradient>
    </defs>
    <g fill="none" fill-rule="evenodd">
        <path fill="url(#a)" d="M0 0h56v56H0z"/>
        <g fill-rule="nonzero" stroke="#FFF">
            <path fill="#FFF" d="M44 27.6V27h-6.835a.305.305 0 0 0-.31.3v.3H30.33a.316.316 0 0 0-.22.087l-3.614 3.486-12.48-2.094a1.763 1.763 0 0 0-1.403.365c-.39.316-.613.779-.613 1.27 0 .588.327 1.137.853 1.433l13.555 7.626a1.767 1.767 0 0 0 1.636.051l6.709-3.235h2.101v.3c0 .165.14.3.311.3H44v-.6h-4.039v-8.99H44zm-9.32 8.39a.32.32 0 0 0-.14.031l-6.774 3.267a1.13 1.13 0 0 1-1.045-.032L13.167 31.63a1.057 1.057 0 0 1-.546-.916c0-.314.143-.61.392-.811.249-.202.575-.287.896-.233l12.05 2.021-.926.894c-.39.377-.606.877-.606 1.41 0 1.1.928 1.994 2.068 1.994.553 0 1.073-.207 1.463-.584l3.213-3.1-.44-.423-3.213 3.1a1.463 1.463 0 0 1-1.023.408c-.797 0-1.446-.626-1.446-1.395 0-.373.15-.723.423-.987l4.987-4.81h6.395v7.791H34.68zm2.796-8.39h1.864v8.989h-1.864v-8.99z"/>
            <path fill="#000" d="M24 27c2.757 0 5-2.243 5-5s-2.243-5-5-5-5 2.243-5 5 2.243 5 5 5zm0-9.474A4.479 4.479 0 0 1 28.474 22 4.479 4.479 0 0 1 24 26.474 4.479 4.479 0 0 1 19.526 22 4.479 4.479 0 0 1 24 17.526z"/>
        </g>
    </g>
</svg>
